<?xml version="1.0" encoding="utf-8"?>
<!-- Generator: Adobe Illustrator 21.0.0, SVG Export Plug-In . SVG Version: 6.00 Build 0)  -->
<svg version="1.1" id="Layer_1" xmlns="http://www.w3.org/2000/svg" xmlns:xlink="http://www.w3.org/1999/xlink" x="0px" y="0px"
	 viewBox="0 0 822.9 228" style="enable-background:new 0 0 822.9 228;" xml:space="preserve">
<style type="text/css">
	.st0{clip-path:url(#SVGID_2_);}
	.st1{clip-path:url(#SVGID_4_);}
	.st2{clip-path:url(#SVGID_4_);fill:#ED1C24;}
	.st3{clip-path:url(#SVGID_4_);fill:#FFFFFF;}
</style>
<g>
	<g>
		<defs>
			<rect id="SVGID_1_" y="-296.7" width="822.9" height="822.9"/>
		</defs>
		<clipPath id="SVGID_2_">
			<use xlink:href="#SVGID_1_"  style="overflow:visible;"/>
		</clipPath>
		<g class="st0">
			<defs>
				<rect id="SVGID_3_" y="-296.7" width="822.9" height="822.9"/>
			</defs>
			<clipPath id="SVGID_4_">
				<use xlink:href="#SVGID_3_"  style="overflow:visible;"/>
			</clipPath>
			<path class="st1" d="M470,114.5c-4.5-4.8-10.7-8.4-18.4-10.9c5.6-2.4,10.3-5.9,13.9-10.4c3.7-4.5,5.5-10.5,5.5-17.8V75
				c0-4.3-0.7-8.2-2.2-11.6c-1.4-3.4-3.4-6.3-6-8.9c-3.7-3.7-8.4-6.6-14.1-8.5c-5.7-1.9-12.5-2.9-20.4-2.9h-64.8v126.6h65.3
				c8.7,0,16.4-1,22.9-3.1l20.7-49C471.7,116.5,470.9,115.5,470,114.5 M397.8,71.4h22.8c5.3,0,9.3,0.9,11.9,2.8c2.7,1.9,4,4.6,4,8
				v0.4c0,3.7-1.4,6.5-4.2,8.3c-2.8,1.8-7,2.7-12.4,2.7h-22.1V71.4z M441.7,130c0,3.7-1.4,6.6-4.3,8.6c-2.9,2-7.1,3-12.5,3h-27.1
				v-23.3h26.8c5.9,0,10.2,1,13,3.1c2.8,2.1,4.2,4.8,4.2,8.3V130z"/>
			<path class="st1" d="M582,159.7c-6.6-6.6-11.8-14.4-15.7-23.4c-3.9-9-5.8-18.9-5.8-29.4v-0.4c0-3.3,0.2-6.5,0.6-9.7l-23-54.5
				h-33.8l-31.9,75.4c2.9,4.4,4.3,10,4.3,16.9v0.4c0,11-4.2,19.5-12.6,25.7c-3.6,2.6-7.7,4.7-12.5,6.2l-1.3,3.1h36.9l9-22.6h48.8
				l9.2,22.6H592l-1.1-2.6C587.7,164.9,584.8,162.4,582,159.7 M506.7,120l14.3-36l14.1,36H506.7z"/>
			<path class="st1" d="M476.8,134.9v-0.4c0-6.8-1.4-12.4-4.3-16.9l-20.7,49c4.8-1.5,8.9-3.5,12.5-6.2
				C472.6,154.4,476.8,145.8,476.8,134.9"/>
			<path class="st1" d="M663.6,124.9c-1.9,2.3-3.9,4.4-5.9,6.2c-2,1.9-4.1,3.5-6.3,4.9c-2.2,1.4-4.7,2.4-7.4,3.2
				c-2.7,0.7-5.7,1.1-9,1.1c-4.5,0-8.5-0.9-12.2-2.6c-3.7-1.7-6.8-4.1-9.5-7.1c-2.7-3-4.7-6.6-6.2-10.8c-1.5-4.2-2.3-8.6-2.3-13.3
				v-0.4c0-4.6,0.8-8.9,2.3-13c1.5-4.1,3.6-7.7,6.2-10.7c2.7-3,5.8-5.4,9.5-7.1c3.7-1.7,7.7-2.6,12.2-2.6c6.1,0,11.4,1.3,15.7,4
				c4.3,2.7,8.3,6.3,11.9,10.8l26.4-20.4c-2.8-3.9-5.9-7.4-9.5-10.7c-3.6-3.3-7.5-6.1-11.9-8.4c-4.4-2.4-9.3-4.2-14.6-5.4
				c-5.3-1.3-11.2-1.9-17.7-1.9c-9.6,0-18.5,1.7-26.7,5.1c-8.1,3.4-15.2,8-21.1,14c-5.9,6-10.5,13-13.9,21c-3.4,8-5.1,16.6-5.1,25.8
				v0.4c0,9.4,1.7,18.1,5.2,26.1c3.4,8,8.1,14.9,13.9,20.8c5.8,5.8,12.7,10.4,20.7,13.7c8,3.3,16.5,4.9,25.5,4.9
				c7,0,13.3-0.7,18.9-2.2c5.6-1.4,10.7-3.4,15.2-6c4.5-2.5,8.6-5.5,12.1-9c3.6-3.5,6.8-7.3,9.9-11.4L663.6,124.9z"/>
			<path class="st2" d="M374,185.1c0.6-0.3,1.1-0.6,1.5-1.1c0.4-0.5,0.6-1.1,0.6-1.9v0c0-0.5-0.1-0.9-0.2-1.2
				c-0.2-0.4-0.4-0.7-0.6-0.9c-0.4-0.4-0.9-0.7-1.5-0.9s-1.3-0.3-2.1-0.3h-6.8v13.3h6.9c1.6,0,2.8-0.3,3.7-1
				c0.9-0.6,1.3-1.5,1.3-2.7v0c0-0.9-0.2-1.6-0.7-2.1C375.5,185.8,374.8,185.4,374,185.1 M368.4,181.7h2.4c0.6,0,1,0.1,1.3,0.3
				c0.3,0.2,0.4,0.5,0.4,0.8v0c0,0.4-0.1,0.7-0.4,0.9c-0.3,0.2-0.7,0.3-1.3,0.3h-2.3V181.7z M373,187.9c0,0.4-0.2,0.7-0.5,0.9
				c-0.3,0.2-0.7,0.3-1.3,0.3h-2.9v-2.5h2.8c0.6,0,1.1,0.1,1.4,0.3C372.8,187.2,373,187.5,373,187.9L373,187.9z"/>
			<rect x="378.2" y="178.2" class="st2" width="3.6" height="13.9"/>
			<path class="st2" d="M393.2,183.1c-0.5-0.5-1.1-0.9-1.8-1.1c-0.7-0.3-1.4-0.4-2.3-0.4s-1.6,0.1-2.3,0.4c-0.7,0.3-1.3,0.7-1.8,1.2
				c-0.5,0.5-0.9,1.1-1.2,1.7c-0.3,0.7-0.4,1.3-0.4,2.1v0c0,0.7,0.1,1.4,0.4,2.1c0.3,0.6,0.7,1.2,1.2,1.7c0.5,0.5,1.1,0.9,1.8,1.1
				c0.7,0.3,1.4,0.4,2.3,0.4c0.8,0,1.6-0.1,2.3-0.4c0.7-0.3,1.3-0.7,1.8-1.2c0.5-0.5,0.9-1.1,1.2-1.7c0.3-0.7,0.4-1.3,0.4-2.1v0
				c0-0.7-0.1-1.4-0.4-2.1C394.1,184.2,393.7,183.6,393.2,183.1 M391.3,187c0,0.3-0.1,0.6-0.2,0.9c-0.1,0.3-0.2,0.5-0.4,0.7
				c-0.2,0.2-0.4,0.4-0.7,0.5c-0.3,0.1-0.6,0.2-0.9,0.2c-0.3,0-0.6-0.1-0.9-0.2c-0.3-0.1-0.5-0.3-0.7-0.5c-0.2-0.2-0.3-0.4-0.5-0.7
				c-0.1-0.3-0.2-0.6-0.2-0.9v0c0-0.3,0.1-0.6,0.2-0.9c0.1-0.3,0.2-0.5,0.4-0.7c0.2-0.2,0.4-0.4,0.7-0.5c0.3-0.1,0.6-0.2,0.9-0.2
				c0.3,0,0.6,0.1,0.9,0.2c0.3,0.1,0.5,0.3,0.7,0.5c0.2,0.2,0.3,0.4,0.5,0.7C391.2,186.3,391.3,186.6,391.3,187L391.3,187z"/>
			<path class="st2" d="M402.6,189c-0.3,0.2-0.7,0.3-1.1,0.3c-0.3,0-0.6-0.1-0.8-0.2c-0.3-0.1-0.5-0.3-0.6-0.5
				c-0.2-0.2-0.3-0.5-0.4-0.7c-0.1-0.3-0.2-0.6-0.2-0.9v0c0-0.3,0.1-0.6,0.2-0.9c0.1-0.3,0.2-0.5,0.4-0.7c0.2-0.2,0.4-0.4,0.6-0.5
				c0.2-0.1,0.5-0.2,0.8-0.2c0.4,0,0.8,0.1,1.1,0.3c0.3,0.2,0.6,0.5,0.8,0.8l2.5-1.8c-0.4-0.7-1-1.3-1.7-1.7
				c-0.7-0.4-1.6-0.6-2.7-0.6c-0.8,0-1.6,0.1-2.2,0.4c-0.7,0.3-1.3,0.7-1.7,1.2c-0.5,0.5-0.9,1.1-1.1,1.7c-0.3,0.7-0.4,1.3-0.4,2.1
				v0c0,0.7,0.1,1.4,0.4,2.1c0.3,0.7,0.6,1.2,1.1,1.7c0.5,0.5,1,0.9,1.7,1.2c0.7,0.3,1.4,0.4,2.1,0.4c1.1,0,2.1-0.2,2.8-0.6
				c0.7-0.4,1.3-1,1.8-1.7l-2.4-1.7C403.2,188.5,402.9,188.8,402.6,189"/>
			<polygon class="st2" points="417.6,181.8 413.6,181.8 410.8,185.2 410.8,178.2 407.1,178.2 407.1,192.1 410.8,192.1 410.8,189.7 
				411.7,188.6 413.8,192.1 417.7,192.1 414.1,185.9 			"/>
			<path class="st2" d="M424.8,189c-0.3,0.2-0.7,0.3-1.1,0.3c-0.3,0-0.6-0.1-0.8-0.2c-0.3-0.1-0.5-0.3-0.6-0.5
				c-0.2-0.2-0.3-0.5-0.4-0.7c-0.1-0.3-0.2-0.6-0.2-0.9v0c0-0.3,0.1-0.6,0.2-0.9c0.1-0.3,0.2-0.5,0.4-0.7c0.2-0.2,0.4-0.4,0.6-0.5
				c0.2-0.1,0.5-0.2,0.8-0.2c0.4,0,0.8,0.1,1.1,0.3c0.3,0.2,0.6,0.5,0.8,0.8l2.5-1.8c-0.4-0.7-1-1.3-1.7-1.7
				c-0.7-0.4-1.6-0.6-2.7-0.6c-0.8,0-1.6,0.1-2.2,0.4c-0.7,0.3-1.3,0.7-1.7,1.2c-0.5,0.5-0.9,1.1-1.1,1.7c-0.3,0.7-0.4,1.3-0.4,2.1
				v0c0,0.7,0.1,1.4,0.4,2.1c0.3,0.7,0.6,1.2,1.1,1.7c0.5,0.5,1,0.9,1.7,1.2c0.7,0.3,1.4,0.4,2.1,0.4c1.1,0,2.1-0.2,2.8-0.6
				c0.7-0.4,1.3-1,1.8-1.7l-2.4-1.7C425.4,188.5,425.1,188.8,424.8,189"/>
			<path class="st2" d="M436.1,181.6c-0.7,0-1.3,0.2-1.8,0.5c-0.5,0.3-0.9,0.7-1.2,1.1v-5h-3.6v13.9h3.6v-5.6c0-0.6,0.1-1,0.4-1.3
				c0.3-0.3,0.6-0.4,1.1-0.4c0.4,0,0.8,0.1,1,0.4c0.3,0.3,0.4,0.7,0.4,1.3v5.6h3.6v-6.7c0-1.2-0.3-2.1-0.9-2.8
				C438,181.9,437.2,181.6,436.1,181.6"/>
			<path class="st2" d="M449.9,182.9c-0.4-0.4-0.9-0.7-1.6-0.9c-0.6-0.2-1.4-0.3-2.3-0.3c-0.9,0-1.7,0.1-2.3,0.2
				c-0.7,0.1-1.3,0.3-1.9,0.6l0.7,2.5c0.5-0.2,0.9-0.3,1.3-0.4c0.4-0.1,0.9-0.2,1.5-0.2c0.7,0,1.2,0.1,1.5,0.4
				c0.3,0.3,0.5,0.7,0.5,1.2v0.2c-0.3-0.1-0.7-0.2-1.1-0.3c-0.4-0.1-0.9-0.1-1.4-0.1c-0.6,0-1.2,0.1-1.7,0.2
				c-0.5,0.1-0.9,0.3-1.3,0.6c-0.3,0.3-0.6,0.6-0.8,1c-0.2,0.4-0.3,0.9-0.3,1.4v0c0,0.5,0.1,1,0.3,1.4c0.2,0.4,0.4,0.7,0.7,1
				c0.3,0.3,0.7,0.5,1.1,0.6c0.4,0.1,0.9,0.2,1.4,0.2c0.7,0,1.3-0.1,1.8-0.4c0.5-0.2,0.9-0.5,1.3-0.9v1.1h3.6v-5.9
				c0-0.7-0.1-1.4-0.3-1.9C450.6,183.7,450.3,183.3,449.9,182.9 M447.5,188.3c0,0.5-0.2,0.9-0.5,1.2c-0.3,0.3-0.8,0.5-1.3,0.5
				c-0.4,0-0.7-0.1-0.9-0.3c-0.2-0.2-0.4-0.5-0.4-0.8v0c0-0.4,0.1-0.7,0.4-0.9c0.3-0.2,0.7-0.4,1.2-0.4c0.3,0,0.5,0,0.8,0.1
				c0.2,0.1,0.5,0.1,0.6,0.2V188.3z"/>
			<rect x="452.8" y="178.2" class="st2" width="3.8" height="2.7"/>
			<rect x="452.9" y="181.8" class="st2" width="3.6" height="10.3"/>
			<path class="st2" d="M465.2,181.6c-0.4,0-0.7,0-1,0.1c-0.3,0.1-0.6,0.2-0.8,0.4c-0.3,0.2-0.5,0.3-0.7,0.5
				c-0.2,0.2-0.4,0.4-0.5,0.6v-1.4h-3.6v10.3h3.6v-5.6c0-0.6,0.1-1,0.4-1.3c0.3-0.3,0.6-0.4,1.1-0.4c0.4,0,0.8,0.1,1,0.4
				c0.3,0.3,0.4,0.7,0.4,1.3v5.6h3.6v-6.7c0-1.2-0.3-2.1-0.9-2.8C467.2,181.9,466.3,181.6,465.2,181.6"/>
			<path class="st2" d="M480.7,178.7l-5.7,13.4h3.9l0.9-2.4h5.1l1,2.4h4l-5.7-13.4H480.7z M480.9,186.8l1.5-3.8l1.5,3.8H480.9z"/>
			<path class="st2" d="M498.2,186.6c-0.3-0.2-0.7-0.5-1.2-0.6c-0.4-0.2-0.9-0.3-1.4-0.5c-0.5-0.2-1-0.3-1.2-0.4
				c-0.3-0.1-0.4-0.3-0.4-0.5v0c0-0.1,0.1-0.3,0.2-0.4c0.1-0.1,0.3-0.1,0.6-0.1c0.4,0,0.9,0.1,1.4,0.3c0.5,0.2,1.1,0.4,1.6,0.7
				l1.2-2.3c-0.6-0.4-1.3-0.7-2-0.9c-0.7-0.2-1.5-0.3-2.2-0.3c-0.6,0-1.1,0.1-1.6,0.2c-0.5,0.2-0.9,0.4-1.3,0.7
				c-0.4,0.3-0.7,0.6-0.9,1.1c-0.2,0.4-0.3,0.9-0.3,1.5v0c0,0.5,0.1,1,0.3,1.3c0.2,0.4,0.4,0.7,0.8,0.9c0.3,0.2,0.7,0.5,1.2,0.6
				c0.4,0.2,0.9,0.3,1.4,0.4c0.5,0.2,1,0.3,1.2,0.4c0.3,0.1,0.4,0.3,0.4,0.5v0c0,0.4-0.3,0.6-0.9,0.6c-0.5,0-1.1-0.1-1.7-0.3
				c-0.6-0.2-1.2-0.5-1.8-0.9l-1.3,2.2c0.7,0.5,1.5,0.9,2.3,1.1c0.8,0.2,1.7,0.4,2.5,0.4c0.6,0,1.2-0.1,1.7-0.2
				c0.5-0.1,1-0.4,1.3-0.7c0.4-0.3,0.7-0.6,0.9-1.1c0.2-0.4,0.3-0.9,0.3-1.5v0c0-0.5-0.1-0.9-0.3-1.3
				C498.8,187.2,498.5,186.9,498.2,186.6"/>
			<path class="st2" d="M507.9,186.6c-0.3-0.2-0.7-0.5-1.2-0.6c-0.4-0.2-0.9-0.3-1.4-0.5c-0.5-0.2-1-0.3-1.2-0.4
				c-0.3-0.1-0.4-0.3-0.4-0.5v0c0-0.1,0.1-0.3,0.2-0.4c0.1-0.1,0.3-0.1,0.6-0.1c0.4,0,0.9,0.1,1.4,0.3c0.5,0.2,1.1,0.4,1.6,0.7
				l1.2-2.3c-0.6-0.4-1.3-0.7-2-0.9c-0.7-0.2-1.5-0.3-2.2-0.3c-0.6,0-1.1,0.1-1.6,0.2c-0.5,0.2-0.9,0.4-1.3,0.7
				c-0.4,0.3-0.7,0.6-0.9,1.1c-0.2,0.4-0.3,0.9-0.3,1.5v0c0,0.5,0.1,1,0.3,1.3c0.2,0.4,0.4,0.7,0.8,0.9c0.3,0.2,0.7,0.5,1.2,0.6
				c0.4,0.2,0.9,0.3,1.4,0.4c0.5,0.2,1,0.3,1.2,0.4c0.3,0.1,0.4,0.3,0.4,0.5v0c0,0.4-0.3,0.6-0.9,0.6c-0.5,0-1.1-0.1-1.7-0.3
				c-0.6-0.2-1.2-0.5-1.8-0.9l-1.3,2.2c0.7,0.5,1.5,0.9,2.3,1.1c0.8,0.2,1.7,0.4,2.5,0.4c0.6,0,1.2-0.1,1.7-0.2
				c0.5-0.1,1-0.4,1.3-0.7c0.4-0.3,0.7-0.6,0.9-1.1c0.2-0.4,0.3-0.9,0.3-1.5v0c0-0.5-0.1-0.9-0.3-1.3
				C508.5,187.2,508.3,186.9,507.9,186.6"/>
			<path class="st2" d="M519.8,183.1c-0.5-0.5-1.1-0.9-1.8-1.1c-0.7-0.3-1.4-0.4-2.3-0.4c-0.8,0-1.6,0.1-2.3,0.4
				c-0.7,0.3-1.3,0.7-1.8,1.2c-0.5,0.5-0.9,1.1-1.2,1.7c-0.3,0.7-0.4,1.3-0.4,2.1v0c0,0.7,0.1,1.4,0.4,2.1c0.3,0.6,0.7,1.2,1.2,1.7
				c0.5,0.5,1.1,0.9,1.8,1.1c0.7,0.3,1.4,0.4,2.3,0.4s1.6-0.1,2.3-0.4c0.7-0.3,1.3-0.7,1.8-1.2c0.5-0.5,0.9-1.1,1.2-1.7
				c0.3-0.7,0.4-1.3,0.4-2.1v0c0-0.7-0.1-1.4-0.4-2.1C520.7,184.2,520.3,183.6,519.8,183.1 M517.9,187c0,0.3-0.1,0.6-0.2,0.9
				c-0.1,0.3-0.2,0.5-0.4,0.7c-0.2,0.2-0.4,0.4-0.7,0.5c-0.3,0.1-0.6,0.2-0.9,0.2c-0.3,0-0.6-0.1-0.9-0.2c-0.3-0.1-0.5-0.3-0.7-0.5
				c-0.2-0.2-0.3-0.4-0.5-0.7c-0.1-0.3-0.2-0.6-0.2-0.9v0c0-0.3,0.1-0.6,0.2-0.9c0.1-0.3,0.2-0.5,0.4-0.7c0.2-0.2,0.4-0.4,0.7-0.5
				c0.3-0.1,0.6-0.2,0.9-0.2c0.3,0,0.6,0.1,0.9,0.2c0.3,0.1,0.5,0.3,0.7,0.5c0.2,0.2,0.3,0.4,0.5,0.7
				C517.9,186.3,517.9,186.6,517.9,187L517.9,187z"/>
			<path class="st2" d="M529.2,189c-0.3,0.2-0.7,0.3-1.1,0.3c-0.3,0-0.6-0.1-0.8-0.2c-0.3-0.1-0.5-0.3-0.6-0.5
				c-0.2-0.2-0.3-0.5-0.4-0.7c-0.1-0.3-0.2-0.6-0.2-0.9v0c0-0.3,0.1-0.6,0.2-0.9c0.1-0.3,0.2-0.5,0.4-0.7c0.2-0.2,0.4-0.4,0.6-0.5
				c0.2-0.1,0.5-0.2,0.8-0.2c0.4,0,0.8,0.1,1.1,0.3c0.3,0.2,0.6,0.5,0.8,0.8l2.5-1.8c-0.4-0.7-1-1.3-1.7-1.7
				c-0.7-0.4-1.6-0.6-2.7-0.6c-0.8,0-1.6,0.1-2.2,0.4c-0.7,0.3-1.3,0.7-1.7,1.2c-0.5,0.5-0.9,1.1-1.1,1.7c-0.3,0.7-0.4,1.3-0.4,2.1
				v0c0,0.7,0.1,1.4,0.4,2.1c0.3,0.7,0.6,1.2,1.1,1.7c0.5,0.5,1,0.9,1.7,1.2c0.7,0.3,1.4,0.4,2.1,0.4c1.1,0,2.1-0.2,2.8-0.6
				c0.7-0.4,1.3-1,1.8-1.7l-2.4-1.7C529.8,188.5,529.5,188.8,529.2,189"/>
			<rect x="533.8" y="181.8" class="st2" width="3.6" height="10.3"/>
			<rect x="533.8" y="178.2" class="st2" width="3.8" height="2.7"/>
			<path class="st2" d="M547.9,182.9c-0.4-0.4-0.9-0.7-1.6-0.9c-0.6-0.2-1.4-0.3-2.3-0.3c-0.9,0-1.7,0.1-2.3,0.2
				c-0.7,0.1-1.3,0.3-1.9,0.6l0.7,2.5c0.5-0.2,0.9-0.3,1.3-0.4c0.4-0.1,0.9-0.2,1.5-0.2c0.7,0,1.2,0.1,1.5,0.4
				c0.3,0.3,0.5,0.7,0.5,1.2v0.2c-0.3-0.1-0.7-0.2-1.1-0.3c-0.4-0.1-0.9-0.1-1.4-0.1c-0.6,0-1.2,0.1-1.7,0.2
				c-0.5,0.1-0.9,0.3-1.3,0.6c-0.3,0.3-0.6,0.6-0.8,1c-0.2,0.4-0.3,0.9-0.3,1.4v0c0,0.5,0.1,1,0.3,1.4c0.2,0.4,0.4,0.7,0.7,1
				c0.3,0.3,0.7,0.5,1.1,0.6c0.4,0.1,0.9,0.2,1.4,0.2c0.7,0,1.3-0.1,1.8-0.4c0.5-0.2,0.9-0.5,1.3-0.9v1.1h3.6v-5.9
				c0-0.7-0.1-1.4-0.3-1.9C548.6,183.7,548.3,183.3,547.9,182.9 M545.5,188.3c0,0.5-0.2,0.9-0.5,1.2c-0.3,0.3-0.8,0.5-1.3,0.5
				c-0.4,0-0.7-0.1-0.9-0.3c-0.2-0.2-0.4-0.5-0.4-0.8v0c0-0.4,0.1-0.7,0.4-0.9c0.3-0.2,0.7-0.4,1.2-0.4c0.3,0,0.5,0,0.8,0.1
				c0.2,0.1,0.5,0.1,0.6,0.2V188.3z"/>
			<path class="st2" d="M555.1,179.2h-3.6v2.6h-1.2v2.9h1.2v4.2c0,1.2,0.3,2.1,0.9,2.6c0.6,0.5,1.5,0.8,2.6,0.8c0.5,0,1-0.1,1.4-0.2
				c0.4-0.1,0.8-0.3,1.1-0.4v-2.8c-0.2,0.1-0.4,0.2-0.7,0.2c-0.2,0.1-0.5,0.1-0.7,0.1c-0.3,0-0.6-0.1-0.7-0.2
				c-0.2-0.2-0.2-0.4-0.2-0.8v-3.5h2.4v-2.9h-2.4V179.2z"/>
			<rect x="559" y="178.2" class="st2" width="3.8" height="2.7"/>
			<rect x="559.1" y="181.8" class="st2" width="3.6" height="10.3"/>
			<path class="st2" d="M574.1,183.1c-0.5-0.5-1.1-0.9-1.8-1.1c-0.7-0.3-1.4-0.4-2.3-0.4c-0.8,0-1.6,0.1-2.3,0.4
				c-0.7,0.3-1.3,0.7-1.8,1.2c-0.5,0.5-0.9,1.1-1.2,1.7c-0.3,0.7-0.4,1.3-0.4,2.1v0c0,0.7,0.1,1.4,0.4,2.1c0.3,0.6,0.7,1.2,1.2,1.7
				c0.5,0.5,1.1,0.9,1.8,1.1c0.7,0.3,1.4,0.4,2.3,0.4s1.6-0.1,2.3-0.4c0.7-0.3,1.3-0.7,1.8-1.2c0.5-0.5,0.9-1.1,1.2-1.7
				c0.3-0.7,0.4-1.3,0.4-2.1v0c0-0.7-0.1-1.4-0.4-2.1C575,184.2,574.6,183.6,574.1,183.1 M572.2,187c0,0.3-0.1,0.6-0.2,0.9
				c-0.1,0.3-0.2,0.5-0.4,0.7c-0.2,0.2-0.4,0.4-0.7,0.5c-0.3,0.1-0.6,0.2-0.9,0.2c-0.3,0-0.6-0.1-0.9-0.2c-0.3-0.1-0.5-0.3-0.7-0.5
				c-0.2-0.2-0.3-0.4-0.5-0.7c-0.1-0.3-0.2-0.6-0.2-0.9v0c0-0.3,0.1-0.6,0.2-0.9c0.1-0.3,0.2-0.5,0.4-0.7c0.2-0.2,0.4-0.4,0.7-0.5
				c0.3-0.1,0.6-0.2,0.9-0.2c0.3,0,0.6,0.1,0.9,0.2c0.3,0.1,0.5,0.3,0.7,0.5c0.2,0.2,0.3,0.4,0.5,0.7
				C572.1,186.3,572.2,186.6,572.2,187L572.2,187z"/>
			<path class="st2" d="M583.9,181.6c-0.4,0-0.7,0-1,0.1c-0.3,0.1-0.6,0.2-0.8,0.4c-0.3,0.2-0.5,0.3-0.7,0.5
				c-0.2,0.2-0.4,0.4-0.5,0.6v-1.4h-3.6v10.3h3.6v-5.6c0-0.6,0.1-1,0.4-1.3c0.3-0.3,0.6-0.4,1.1-0.4c0.4,0,0.8,0.1,1,0.4
				c0.3,0.3,0.4,0.7,0.4,1.3v5.6h3.6v-6.7c0-1.2-0.3-2.1-0.9-2.8C585.8,181.9,585,181.6,583.9,181.6"/>
			<path class="st2" d="M603.9,183.1c-0.5-0.5-1.1-0.9-1.8-1.1c-0.7-0.3-1.4-0.4-2.3-0.4c-0.8,0-1.6,0.1-2.3,0.4
				c-0.7,0.3-1.3,0.7-1.8,1.2c-0.5,0.5-0.9,1.1-1.2,1.7c-0.3,0.7-0.4,1.3-0.4,2.1v0c0,0.7,0.1,1.4,0.4,2.1c0.3,0.6,0.7,1.2,1.2,1.7
				c0.5,0.5,1.1,0.9,1.8,1.1c0.7,0.3,1.4,0.4,2.3,0.4s1.6-0.1,2.3-0.4c0.7-0.3,1.3-0.7,1.8-1.2c0.5-0.5,0.9-1.1,1.2-1.7
				c0.3-0.7,0.4-1.3,0.4-2.1v0c0-0.7-0.1-1.4-0.4-2.1C604.8,184.2,604.4,183.6,603.9,183.1 M601.9,187c0,0.3-0.1,0.6-0.2,0.9
				c-0.1,0.3-0.2,0.5-0.4,0.7c-0.2,0.2-0.4,0.4-0.7,0.5c-0.3,0.1-0.6,0.2-0.9,0.2c-0.3,0-0.6-0.1-0.9-0.2c-0.3-0.1-0.5-0.3-0.7-0.5
				c-0.2-0.2-0.3-0.4-0.5-0.7c-0.1-0.3-0.2-0.6-0.2-0.9v0c0-0.3,0.1-0.6,0.2-0.9c0.1-0.3,0.2-0.5,0.4-0.7c0.2-0.2,0.4-0.4,0.7-0.5
				c0.3-0.1,0.6-0.2,0.9-0.2c0.3,0,0.6,0.1,0.9,0.2c0.3,0.1,0.5,0.3,0.7,0.5c0.2,0.2,0.3,0.4,0.5,0.7
				C601.9,186.3,601.9,186.6,601.9,187L601.9,187z"/>
			<path class="st2" d="M611.2,178.1c-0.6,0-1.1,0.1-1.6,0.2c-0.4,0.1-0.8,0.4-1.1,0.7c-0.6,0.6-0.9,1.5-0.9,2.7v0.2h-1.2v2.8h1.2
				v7.4h3.6v-7.4h2.3v-2.8h-2.4v-0.2c0-0.6,0.3-1,1-1c0.3,0,0.5,0,0.7,0.1c0.2,0,0.4,0.1,0.6,0.2v-2.5c-0.3-0.1-0.6-0.2-1-0.2
				C612.2,178.1,611.7,178.1,611.2,178.1"/>
			<path class="st2" d="M629,188c-0.2,0.2-0.4,0.4-0.7,0.5c-0.2,0.1-0.5,0.3-0.8,0.3c-0.3,0.1-0.6,0.1-0.9,0.1
				c-0.5,0-0.9-0.1-1.3-0.3c-0.4-0.2-0.7-0.4-1-0.8c-0.3-0.3-0.5-0.7-0.7-1.1c-0.2-0.4-0.2-0.9-0.2-1.4v0c0-0.5,0.1-0.9,0.2-1.4
				c0.2-0.4,0.4-0.8,0.7-1.1c0.3-0.3,0.6-0.6,1-0.8c0.4-0.2,0.8-0.3,1.3-0.3c0.6,0,1.2,0.1,1.7,0.4c0.5,0.3,0.9,0.7,1.3,1.1l2.8-2.1
				c-0.3-0.4-0.6-0.8-1-1.1c-0.4-0.3-0.8-0.6-1.3-0.9c-0.5-0.2-1-0.4-1.5-0.6c-0.6-0.1-1.2-0.2-1.9-0.2c-1,0-1.9,0.2-2.8,0.5
				c-0.9,0.4-1.6,0.8-2.2,1.5c-0.6,0.6-1.1,1.4-1.5,2.2c-0.4,0.8-0.5,1.7-0.5,2.7v0c0,1,0.2,1.9,0.5,2.7c0.4,0.8,0.8,1.6,1.5,2.2
				c0.6,0.6,1.3,1.1,2.2,1.4c0.8,0.3,1.7,0.5,2.7,0.5c0.7,0,1.4-0.1,2-0.2c0.6-0.2,1.1-0.4,1.6-0.6c0.5-0.3,0.9-0.6,1.3-1
				c0.4-0.4,0.7-0.8,1-1.2l-2.8-2C629.4,187.6,629.2,187.8,629,188"/>
			<path class="st2" d="M642.2,182.9c-0.4-0.4-0.9-0.7-1.6-0.9c-0.6-0.2-1.4-0.3-2.3-0.3c-0.9,0-1.7,0.1-2.3,0.2
				c-0.7,0.1-1.3,0.3-1.9,0.6l0.7,2.5c0.5-0.2,0.9-0.3,1.3-0.4c0.4-0.1,0.9-0.2,1.5-0.2c0.7,0,1.2,0.1,1.5,0.4
				c0.3,0.3,0.5,0.7,0.5,1.2v0.2c-0.3-0.1-0.7-0.2-1.1-0.3c-0.4-0.1-0.9-0.1-1.4-0.1c-0.6,0-1.2,0.1-1.7,0.2
				c-0.5,0.1-0.9,0.3-1.3,0.6c-0.3,0.3-0.6,0.6-0.8,1c-0.2,0.4-0.3,0.9-0.3,1.4v0c0,0.5,0.1,1,0.3,1.4c0.2,0.4,0.4,0.7,0.7,1
				c0.3,0.3,0.7,0.5,1.1,0.6c0.4,0.1,0.9,0.2,1.4,0.2c0.7,0,1.3-0.1,1.8-0.4c0.5-0.2,0.9-0.5,1.3-0.9v1.1h3.6v-5.9
				c0-0.7-0.1-1.4-0.3-1.9C642.9,183.7,642.6,183.3,642.2,182.9 M639.8,188.3c0,0.5-0.2,0.9-0.5,1.2c-0.3,0.3-0.8,0.5-1.3,0.5
				c-0.4,0-0.7-0.1-0.9-0.3c-0.2-0.2-0.4-0.5-0.4-0.8v0c0-0.4,0.1-0.7,0.4-0.9c0.3-0.2,0.7-0.4,1.2-0.4c0.3,0,0.5,0,0.8,0.1
				c0.2,0.1,0.5,0.1,0.6,0.2V188.3z"/>
			<path class="st2" d="M651.8,181.6c-0.4,0-0.7,0-1,0.1c-0.3,0.1-0.6,0.2-0.8,0.4c-0.3,0.2-0.5,0.3-0.7,0.5
				c-0.2,0.2-0.4,0.4-0.5,0.6v-1.4h-3.6v10.3h3.6v-5.6c0-0.6,0.1-1,0.4-1.3c0.3-0.3,0.6-0.4,1.1-0.4c0.4,0,0.8,0.1,1,0.4
				c0.3,0.3,0.4,0.7,0.4,1.3v5.6h3.6v-6.7c0-1.2-0.3-2.1-0.9-2.8C653.8,181.9,652.9,181.6,651.8,181.6"/>
			<path class="st2" d="M665.7,182.9c-0.4-0.4-0.9-0.7-1.6-0.9c-0.6-0.2-1.4-0.3-2.3-0.3c-0.9,0-1.7,0.1-2.3,0.2
				c-0.7,0.1-1.3,0.3-1.9,0.6l0.7,2.5c0.5-0.2,0.9-0.3,1.3-0.4c0.4-0.1,0.9-0.2,1.5-0.2c0.7,0,1.2,0.1,1.5,0.4
				c0.3,0.3,0.5,0.7,0.5,1.2v0.2c-0.3-0.1-0.7-0.2-1.1-0.3c-0.4-0.1-0.9-0.1-1.4-0.1c-0.6,0-1.2,0.1-1.7,0.2s-0.9,0.3-1.3,0.6
				c-0.3,0.3-0.6,0.6-0.8,1c-0.2,0.4-0.3,0.9-0.3,1.4v0c0,0.5,0.1,1,0.3,1.4c0.2,0.4,0.4,0.7,0.7,1c0.3,0.3,0.7,0.5,1.1,0.6
				c0.4,0.1,0.9,0.2,1.4,0.2c0.7,0,1.3-0.1,1.8-0.4c0.5-0.2,0.9-0.5,1.3-0.9v1.1h3.6v-5.9c0-0.7-0.1-1.4-0.3-1.9
				S666,183.3,665.7,182.9 M663.2,188.3c0,0.5-0.2,0.9-0.5,1.2c-0.3,0.3-0.8,0.5-1.3,0.5c-0.4,0-0.7-0.1-0.9-0.3
				c-0.2-0.2-0.4-0.5-0.4-0.8v0c0-0.4,0.1-0.7,0.4-0.9c0.3-0.2,0.7-0.4,1.2-0.4c0.3,0,0.5,0,0.8,0.1c0.2,0.1,0.5,0.1,0.6,0.2V188.3z
				"/>
			<path class="st2" d="M675.9,183c-0.3-0.4-0.8-0.7-1.3-1c-0.5-0.3-1.1-0.4-1.9-0.4c-0.6,0-1.2,0.1-1.7,0.4c-0.5,0.2-1,0.6-1.4,1.1
				c-0.4,0.5-0.7,1-1,1.7c-0.2,0.7-0.4,1.4-0.4,2.3v0c0,0.8,0.1,1.6,0.4,2.2c0.2,0.7,0.6,1.2,1,1.7c0.4,0.5,0.9,0.8,1.4,1.1
				c0.6,0.2,1.1,0.4,1.7,0.4c0.8,0,1.4-0.2,1.9-0.5c0.5-0.3,0.9-0.7,1.3-1.1l0,1.4h3.6v-13.9h-3.6V183z M675.9,186.9
				c0,0.3-0.1,0.7-0.2,0.9c-0.1,0.3-0.3,0.5-0.4,0.7c-0.2,0.2-0.4,0.4-0.7,0.5c-0.3,0.1-0.5,0.2-0.8,0.2c-0.3,0-0.6-0.1-0.8-0.2
				c-0.3-0.1-0.5-0.3-0.7-0.5c-0.2-0.2-0.3-0.5-0.5-0.7c-0.1-0.3-0.2-0.6-0.2-0.9v0c0-0.3,0.1-0.7,0.2-0.9c0.1-0.3,0.3-0.5,0.5-0.7
				c0.2-0.2,0.4-0.4,0.7-0.5c0.3-0.1,0.5-0.2,0.8-0.2c0.3,0,0.6,0.1,0.8,0.2c0.3,0.1,0.5,0.3,0.7,0.5c0.2,0.2,0.3,0.5,0.4,0.7
				C675.9,186.2,675.9,186.6,675.9,186.9L675.9,186.9z"/>
			<path class="st2" d="M690.7,184.3c-0.2-0.5-0.5-1-0.8-1.4c-0.4-0.4-0.9-0.7-1.6-0.9c-0.6-0.2-1.4-0.3-2.3-0.3
				c-0.9,0-1.7,0.1-2.3,0.2c-0.7,0.1-1.3,0.3-1.9,0.6l0.7,2.5c0.5-0.2,0.9-0.3,1.3-0.4c0.4-0.1,0.9-0.2,1.5-0.2
				c0.7,0,1.2,0.1,1.5,0.4c0.3,0.3,0.5,0.7,0.5,1.2v0.2c-0.3-0.1-0.7-0.2-1.1-0.3c-0.4-0.1-0.9-0.1-1.4-0.1c-0.6,0-1.2,0.1-1.7,0.2
				c-0.5,0.1-0.9,0.3-1.3,0.6c-0.3,0.3-0.6,0.6-0.8,1c-0.2,0.4-0.3,0.9-0.3,1.4v0c0,0.5,0.1,1,0.3,1.4c0.2,0.4,0.4,0.7,0.7,1
				c0.3,0.3,0.7,0.5,1.1,0.6c0.4,0.1,0.9,0.2,1.4,0.2c0.7,0,1.3-0.1,1.8-0.4c0.5-0.2,0.9-0.5,1.3-0.9v1.1h3.6v-5.9
				C691,185.4,690.9,184.8,690.7,184.3 M687.5,188.3c0,0.5-0.2,0.9-0.5,1.2c-0.3,0.3-0.8,0.5-1.3,0.5c-0.4,0-0.7-0.1-0.9-0.3
				c-0.2-0.2-0.4-0.5-0.4-0.8v0c0-0.4,0.1-0.7,0.4-0.9c0.3-0.2,0.7-0.4,1.2-0.4c0.3,0,0.5,0,0.8,0.1c0.2,0.1,0.5,0.1,0.6,0.2V188.3z
				"/>
			<path class="st2" d="M219,150.4l-0.8-0.2l-22.5,1.9c0.1,0.3,0.2,0.6,0.2,1c0,0.2,0,0.3-0.1,0.5l23.3-2c-0.1-0.3-0.2-0.6-0.2-1
				C219,150.5,219,150.4,219,150.4"/>
			<path class="st2" d="M195.1,151l3.2-5.2c-0.6,0-1.1-0.2-1.5-0.4l-3,4.8C194.3,150.4,194.7,150.6,195.1,151"/>
			<path class="st2" d="M216.8,73.6l9.9-17.8l-0.1,55.8l0.1,0.4l-0.1-56.2c-0.5-0.1-1-0.4-1.3-0.7l-9.8,17.7
				C216,73,216.5,73.3,216.8,73.6"/>
			<path class="st2" d="M196.2,140.7l-26.5-19.7c-0.2,0.5-0.5,0.9-0.9,1.2l26.6,19.8C195.6,141.5,195.8,141,196.2,140.7"/>
			<path class="st2" d="M169.7,118.9l3-1.9c-0.4-0.3-0.6-0.8-0.8-1.3l-3,1.9C169.3,117.9,169.6,118.4,169.7,118.9"/>
			<path class="st2" d="M168.3,95.5c-0.4,0.2-0.9,0.4-1.4,0.4c0,0-0.1,0-0.1,0l6.2,16.5c0.4-0.3,0.9-0.5,1.4-0.5L168.3,95.5z"/>
			<path class="st2" d="M180.6,97.1C180.6,97.1,180.6,97,180.6,97.1c0-0.6,0.1-1,0.4-1.5l-11.1-2.7c0,0.5-0.2,1-0.4,1.5L180.6,97.1z
				"/>
			<path class="st2" d="M202.6,70.5c-0.4,0.2-0.9,0.4-1.5,0.4l9.9,36.4c0.4-0.2,0.9-0.4,1.5-0.4L202.6,70.5z"/>
			<path class="st2" d="M186,95.2l3.3-4.3c-0.5-0.2-0.9-0.5-1.2-0.9l-3.3,4.3C185.3,94.4,185.7,94.8,186,95.2"/>
			<path class="st2" d="M226.6,126.7l-0.1,49.1h-1.6c0.1,0.2,0.1,0.5,0.1,0.8c0,0.3,0,0.5-0.1,0.8h1.9l-0.1-51.6L226.6,126.7z"/>
			<path class="st2" d="M192,90.6l17.9,17.8c0.3-0.4,0.6-0.8,1.1-1.1l-17.9-17.8C192.8,90,192.4,90.4,192,90.6"/>
			<path class="st2" d="M222.8,173.7v-20.2c-0.2,0.1-0.5,0.1-0.8,0.1c-0.3,0-0.5,0-0.8-0.1v20.2c0.2-0.1,0.5-0.1,0.8-0.1
				C222.3,173.6,222.5,173.6,222.8,173.7"/>
			<polygon class="st2" points="228.2,50 228.2,50 228.2,50 			"/>
			<path class="st2" d="M203.2,70l8.4,5.1c0.1-0.5,0.3-1,0.6-1.4l-8.3-5C203.8,69.2,203.6,69.7,203.2,70"/>
			<path class="st2" d="M209.9,108.4l-23.3-10.9c-0.1,0.5-0.3,1-0.6,1.4l23.5,11c0,0,0,0,0,0C209.5,109.4,209.6,108.9,209.9,108.4"
				/>
			<path class="st2" d="M224.5,117.5c-0.1-0.2-0.1-0.5-0.1-0.7c0-0.5,0.1-1,0.3-1.4l-9.4-4.4c-0.2,0.5-0.5,0.9-0.9,1.2l7.8,3.6
				l-7.6-0.3l-0.7-3c-0.4,0.2-0.9,0.4-1.4,0.4c0,0,0,0-0.1,0l0.6,2.6l-2.1-0.1l1.1-2.5c-0.5-0.1-1-0.3-1.4-0.6l-1.3,3.1l-31.6-1.2
				c0,0.2,0.1,0.4,0.1,0.6c0,0.3-0.1,0.6-0.1,0.9l31.1,1.2l-7.4,17.1l-23.8-18c-0.2,0.5-0.5,0.9-0.9,1.2l24.1,18.2l-1.9,4.5
				c0.5,0.1,1,0.3,1.4,0.6l1.8-4.2l16,12.2l1.5,0.5c0.2-0.3,0.4-0.5,0.7-0.7l-17.6-13.3l7.8-18l3.1,0.1l7.2,30.9
				c0.3-0.2,0.7-0.3,1.1-0.3l0.1-0.9l-6.9-29.6L224.5,117.5z"/>
			<path class="st2" d="M202.3,69.5l0.3,1c0.2-0.1,0.4-0.3,0.6-0.4L202.3,69.5z"/>
			<path class="st2" d="M204,68.8c0.1-0.3,0.1-0.6,0.1-0.9c0-1.7-1.4-3-3-3c-1.7,0-3,1.4-3,3c0,1.7,1.4,3,3,3c0,0,0,0,0,0l-1.3-4.6
				L204,68.8z"/>
			<path class="st2" d="M202.3,69.5l0.9,0.5c0.4-0.4,0.6-0.8,0.8-1.3l-4.1-2.5l1.3,4.6c0.5,0,1-0.2,1.5-0.4L202.3,69.5z"/>
			<path class="st2" d="M210,108.5L210,108.5c-0.1-0.1-0.1-0.1-0.1-0.1L210,108.5z"/>
			<path class="st2" d="M213.2,109.7l0.1,0.3l2,0.9c0.1-0.3,0.2-0.7,0.2-1.1c0-1.7-1.4-3-3-3c0,0,0,0,0,0l0.2,0.7l0.1-0.1
				L213.2,109.7z"/>
			<path class="st2" d="M209.5,109.9c0,1,0.5,1.8,1.2,2.4l0.7-1.5L209.5,109.9z"/>
			<path class="st2" d="M212.3,112.3l-0.2,0.6c0.1,0,0.3,0,0.4,0L212.3,112.3z"/>
			<path class="st2" d="M211,107.3C211,107.3,211,107.3,211,107.3L211,107.3L211,107.3z"/>
			<path class="st2" d="M213.9,112l0.1,0.5l-0.1-0.1l0.1,0.3c0.2-0.1,0.4-0.2,0.5-0.3L213.9,112z"/>
			<polygon class="st2" points="213.3,110 213.3,110.1 213.2,109.7 			"/>
			<polygon class="st2" points="213.9,112 213.8,111.9 213.8,112.3 214,112.4 			"/>
			<path class="st2" d="M209.9,108.4L209.9,108.4l2,1l0.8-1.8l-0.2-0.7c-0.5,0-1,0.2-1.5,0.4l0,0.1l-0.1-0.1
				C210.5,107.6,210.2,108,209.9,108.4"/>
			<path class="st2" d="M209.5,109.9C209.5,109.9,209.5,109.9,209.5,109.9l1.8,0.9l-0.7,1.5c0.4,0.3,0.9,0.5,1.4,0.6l0.2-0.6
				l0.1,0.6c0,0,0,0,0.1,0c0.5,0,1-0.1,1.4-0.4l-0.1-0.3l-3.8-3.8l-0.1-0.1C209.6,108.9,209.5,109.4,209.5,109.9"/>
			<polygon class="st2" points="212.7,107.5 212.7,107.6 213.2,109.7 			"/>
			<path class="st2" d="M215.3,111l-2-0.9l0.5,1.9l0.6,0.3C214.8,111.9,215.1,111.5,215.3,111"/>
			<polygon class="st2" points="213.8,111.9 213.9,112 213.3,110.1 213.3,110 213.2,109.7 212.7,107.6 211.9,109.4 210,108.5 
				213.8,112.3 			"/>
			<path class="st2" d="M193.1,89.6c0.3-0.4,0.4-1,0.4-1.5c0-1.7-1.4-3-3-3s-3,1.4-3,3c0,0.7,0.3,1.4,0.7,1.9l2.3-3L193.1,89.6z"/>
			<path class="st2" d="M192,90.6l-1.5-1.4l-1.2,1.6c0.4,0.2,0.8,0.2,1.2,0.2C191,91.1,191.5,90.9,192,90.6"/>
			<path class="st2" d="M189.3,90.8l1.2-1.6l1.5,1.4c0.4-0.3,0.8-0.6,1.1-1.1l-2.7-2.7l-2.3,3C188.4,90.3,188.8,90.6,189.3,90.8"/>
			<path class="st2" d="M186.7,97c0-0.7-0.3-1.4-0.7-1.9l-1.2,1.6l1.8,0.8C186.7,97.4,186.7,97.2,186.7,97"/>
			<path class="st2" d="M184.8,94.2c-0.4-0.1-0.8-0.2-1.2-0.2c-1.2,0-2.1,0.6-2.6,1.6l2.3,0.6L184.8,94.2z"/>
			<path class="st2" d="M183.7,100c0.9,0,1.8-0.4,2.3-1.1l-2.6-1.2l-2.8-0.7C180.7,98.7,182,100,183.7,100"/>
			<path class="st2" d="M180.6,97.1l2.8,0.7l-0.1,0l0.6-1.4l0.8,0.4l1.2-1.6c-0.3-0.4-0.7-0.7-1.2-0.9l-1.5,1.9l-2.3-0.6
				C180.8,96,180.6,96.5,180.6,97.1C180.6,97,180.6,97.1,180.6,97.1"/>
			<path class="st2" d="M186.6,97.6l-1.8-0.8l-0.9,1.1l-0.6-0.1l2.6,1.2C186.3,98.6,186.5,98.1,186.6,97.6"/>
			<polygon class="st2" points="184.8,96.7 184,96.3 183.3,97.7 183.4,97.7 184,97.9 			"/>
			<path class="st2" d="M169.9,92.9C169.9,92.9,169.9,92.9,169.9,92.9c0-1.7-1.3-3.1-3-3.1c-1.7,0-3,1.4-3,3c0,1.6,1.3,3,2.9,3
				l-1.5-4.1L169.9,92.9z"/>
			<path class="st2" d="M169.5,94.3l-1.8-0.4l0.6,1.6C168.8,95.2,169.2,94.8,169.5,94.3"/>
			<path class="st2" d="M168.3,95.5l-0.6-1.6l1.8,0.4c0.3-0.4,0.4-0.9,0.4-1.5l-4.6-1.1l1.5,4.1c0,0,0.1,0,0.1,0
				C167.4,95.8,167.9,95.7,168.3,95.5"/>
			<path class="st2" d="M172.4,113.9l1.3,0l-0.6-1.7c-0.8,0.5-1.3,1.4-1.3,2.5c0,0.3,0.1,0.6,0.2,0.9l1.5-1L172.4,113.9z"/>
			<path class="st2" d="M177.1,115.6l0.4,0.3c0-0.1,0.1-0.2,0.1-0.3L177.1,115.6z"/>
			<path class="st2" d="M174.8,111.7c-0.1,0-0.2,0-0.3,0l0.9,2.3l2.4,0.1C177.4,112.8,176.2,111.7,174.8,111.7"/>
			<path class="st2" d="M176.6,117.1l-1.9-1.4l-2,1.3c0.5,0.5,1.3,0.8,2.1,0.8C175.5,117.8,176.1,117.5,176.6,117.1"/>
			<path class="st2" d="M175.3,114l-0.9-2.3c-0.5,0.1-1,0.2-1.4,0.5l0.6,1.7L175.3,114z"/>
			<path class="st2" d="M172.7,117l2-1.3l-1.3-1l-1.5,1C172.1,116.2,172.3,116.6,172.7,117"/>
			<path class="st2" d="M177.6,115.9l-0.4-0.3l0.5,0c0.1-0.3,0.1-0.6,0.1-0.9c0-0.2,0-0.4-0.1-0.6l-2.4-0.1l0.4,1l-1,0.6l1.9,1.4
				C177,116.8,177.4,116.4,177.6,115.9"/>
			<polygon class="st2" points="173.7,114 172.4,113.9 173.4,114.7 173.8,114.5 			"/>
			<polygon class="st2" points="175.3,114 173.7,114 173.8,114.5 173.4,114.7 174.7,115.7 175.7,115.1 			"/>
			<path class="st2" d="M193.8,150.2c-0.3-0.1-0.6-0.1-0.9-0.1c-1.7,0-3,1.4-3,3c0,1.7,1.4,3,3,3c1.5,0,2.7-1.1,3-2.5l-4.4,0.4
				L193.8,150.2z"/>
			<path class="st2" d="M194.3,152.2l1.4-0.1c-0.1-0.4-0.4-0.8-0.7-1.1L194.3,152.2z"/>
			<path class="st2" d="M195.7,152.1l-1.4,0.1l0.7-1.2c-0.4-0.4-0.8-0.6-1.3-0.8l-2.3,3.8l4.4-0.4c0-0.2,0.1-0.3,0.1-0.5
				C195.9,152.7,195.8,152.4,195.7,152.1"/>
			<path class="st2" d="M222.8,173.7v2.2h2.2C224.7,174.8,223.8,174,222.8,173.7"/>
			<path class="st2" d="M221.3,173.7c-1.3,0.3-2.3,1.5-2.3,2.9c0,1.7,1.4,3,3,3c1.4,0,2.6-1,2.9-2.3h-3.7V173.7z"/>
			<path class="st2" d="M224.9,175.8h-2.2v-2.2c-0.2-0.1-0.5-0.1-0.8-0.1s-0.5,0-0.8,0.1v3.7h3.7c0.1-0.2,0.1-0.5,0.1-0.8
				C225,176.3,225,176.1,224.9,175.8"/>
			<path class="st2" d="M168.9,117.6c-0.5-0.5-1.3-0.8-2.1-0.8c-1.7,0-3,1.4-3,3c0,1.7,1.4,3,3,3c0.7,0,1.4-0.3,1.9-0.7l-3.2-2.4
				L168.9,117.6z"/>
			<path class="st2" d="M169.7,118.9l-1.5,1l1.5,1.1c0.1-0.4,0.2-0.7,0.2-1.1C169.9,119.5,169.8,119.2,169.7,118.9"/>
			<path class="st2" d="M169.7,120.9l-1.5-1.1l1.5-1c-0.2-0.5-0.4-0.9-0.8-1.3l-3.4,2.2l3.2,2.4
				C169.2,121.8,169.5,121.4,169.7,120.9"/>
			<path class="st2" d="M214.8,78.7l11.1,35.5c0.2-0.1,0.5-0.3,0.8-0.3l0-2.2l-10.4-33.4C215.8,78.5,215.3,78.7,214.8,78.7"/>
			<path class="st2" d="M226.8,113.8l0-1.8l-0.1-0.4l0,2.2C226.7,113.9,226.7,113.8,226.8,113.8"/>
			<path class="st2" d="M214.6,78.7c0.1,0,0.1,0,0.1,0l-0.6-2l-2.5-1.5c0,0.2-0.1,0.3-0.1,0.5C211.6,77.4,212.9,78.7,214.6,78.7"/>
			<path class="st2" d="M215.6,72.8c-0.3-0.1-0.6-0.2-0.9-0.2c-0.9,0-1.8,0.4-2.3,1.1l2.1,1.2L215.6,72.8z"/>
			<path class="st2" d="M217.6,75.7c0-0.8-0.3-1.5-0.8-2l-1.3,2.4l0.7,2.2C217.1,77.7,217.6,76.8,217.6,75.7"/>
			<path class="st2" d="M214.1,76.7l-0.2-0.8l1.4-0.5l0.2,0.6l1.3-2.4c-0.3-0.4-0.8-0.7-1.3-0.8l-1.2,2.2l-2.1-1.2
				c-0.3,0.4-0.5,0.9-0.6,1.4L214.1,76.7z"/>
			<path class="st2" d="M216.2,78.2l-0.7-2.2l-0.6,1.1l-0.8-0.5l0.6,2C215.3,78.7,215.8,78.5,216.2,78.2"/>
			<polygon class="st2" points="215.5,76 215.3,75.5 213.9,75.9 214.1,76.7 214.9,77.1 			"/>
			<path class="st2" d="M226.2,119.5l-4.4,27.1l0.2,0.9c0.4,0,0.8,0.1,1.1,0.2l3.4-21.1l0-7C226.5,119.6,226.4,119.6,226.2,119.5"/>
			<path class="st2" d="M226.6,119.7l0,7l0.2-0.9l0-6.1C226.7,119.7,226.7,119.7,226.6,119.7"/>
			<path class="st2" d="M222,147.5C222,147.5,222.1,147.5,222,147.5l-0.1-0.9l-0.1,0.9C221.8,147.6,221.9,147.5,222,147.5"/>
			<path class="st2" d="M219.2,149.4l-1.2-0.9l-16.7-5.4c0,0.5-0.2,1-0.5,1.4l17.4,5.7l0.8-0.1C219.1,149.8,219.1,149.6,219.2,149.4
				"/>
			<path class="st2" d="M218.3,150.1l0.8,0.2c0-0.1,0-0.2,0-0.3L218.3,150.1z"/>
			<path class="st2" d="M218,148.4l1.2,0.9c0.1-0.2,0.2-0.3,0.2-0.5L218,148.4z"/>
			<path class="st2" d="M195.4,142c-0.1,0.3-0.1,0.5-0.1,0.8c0,1.1,0.6,2,1.5,2.6l1-1.7L195.4,142z"/>
			<path class="st2" d="M198.3,139.8c-0.8,0-1.6,0.3-2.1,0.9l1.7,1.3l0.9-2.1C198.6,139.8,198.5,139.8,198.3,139.8"/>
			<path class="st2" d="M200.1,140.4l-0.8,1.9l2,0.6c0-0.1,0-0.1,0-0.2C201.3,141.9,200.9,141,200.1,140.4"/>
			<path class="st2" d="M200.8,144.4l-1.5-0.5l-1.1,1.9c0,0,0,0,0.1,0C199.4,145.8,200.3,145.3,200.8,144.4"/>
			<path class="st2" d="M199.4,144l-1.3-0.4l0.2-0.7l-0.7-0.3l0.3-0.6l-1.7-1.3c-0.4,0.4-0.6,0.8-0.8,1.3l2.3,1.8l-1,1.7
				c0.4,0.3,1,0.4,1.5,0.4L199.4,144z"/>
			<path class="st2" d="M198.5,142.1l0.8,0.3l0.8-1.9c-0.4-0.3-0.9-0.5-1.4-0.6l-0.9,2.1l0.6,0.4L198.5,142.1z"/>
			<polygon class="st2" points="197.9,141.9 197.6,142.5 198.3,142.8 198.4,142.4 			"/>
			<path class="st2" d="M201.3,143l-2-0.6l-0.2,0.5l0.7,0.5l-0.4,0.6l1.4,0.5C201.1,144,201.3,143.5,201.3,143"/>
			<polygon class="st2" points="199.1,142.9 199,143.1 198.3,142.8 198.1,143.5 199.4,144 199.8,143.4 			"/>
			<polygon class="st2" points="198.4,142.4 199.1,142.9 199.3,142.4 198.5,142.1 			"/>
			<polygon class="st2" points="199.1,142.9 198.4,142.4 198.3,142.8 199,143.1 			"/>
			<path class="st2" d="M225,150.6c0-1.2-0.7-2.3-1.8-2.8l-0.4,2.7l0.4,1.9l-0.5-0.3v1.4C224.1,153.1,225,152,225,150.6"/>
			<path class="st2" d="M220.6,147.9c-0.2,0.1-0.3,0.2-0.5,0.3l0.7,0.5L220.6,147.9z"/>
			<path class="st2" d="M219.2,151.6c0.3,0.9,1.1,1.7,2.1,1.9v-2.1L219.2,151.6z"/>
			<path class="st2" d="M222.8,153.5v-1.4l-1.1-0.8l-2.6-0.9c0,0.1,0,0.1,0,0.2c0,0.4,0.1,0.7,0.2,1l2.1-0.2v2.1
				c0.2,0.1,0.5,0.1,0.8,0.1C222.3,153.6,222.5,153.5,222.8,153.5"/>
			<path class="st2" d="M221.7,147.6c-0.4,0-0.8,0.2-1.1,0.3l0.2,0.8l-0.7-0.5c-0.3,0.2-0.5,0.5-0.7,0.7l1.9,0.6L221.7,147.6z"/>
			<polygon class="st2" points="222.8,150.5 222.8,150.6 222.8,152.1 223.2,152.4 			"/>
			<polygon class="st2" points="222.8,150.7 222,150.6 221.8,151.3 221.7,151.2 222.8,152.1 222.8,150.6 			"/>
			<path class="st2" d="M222.8,149.7v0.7l0,0.1l0.4-2.7c-0.3-0.2-0.7-0.2-1.1-0.2l0.5,2.2L222.8,149.7z"/>
			<polygon class="st2" points="222.8,149.7 222.6,149.8 222.8,150.5 			"/>
			<polygon class="st2" points="222.8,150.6 222.8,150.5 222.8,150.5 			"/>
			<path class="st2" d="M221.7,147.6l-0.3,2l0.7,0.2l0.5,0l-0.5-2.2c0,0,0,0-0.1,0C221.9,147.5,221.8,147.6,221.7,147.6"/>
			<polygon class="st2" points="222.6,149.8 222.1,149.8 222.3,149.8 222,150.6 222.8,150.7 222.8,150.6 222.8,150.5 			"/>
			<path class="st2" d="M219.1,150.1l0.9-0.1l-0.8-0.6C219.1,149.6,219.1,149.8,219.1,150.1"/>
			<path class="st2" d="M219.1,150.1c0,0.1,0,0.2,0,0.3l2.6,0.9L220,150L219.1,150.1z"/>
			<path class="st2" d="M219.5,148.9c-0.1,0.1-0.2,0.3-0.2,0.5l0.8,0.6l1.4-0.1l0-0.3L219.5,148.9z"/>
			<polygon class="st2" points="222,150.6 221.3,150.4 221.4,149.9 220,150 221.7,151.2 221.8,151.3 			"/>
			<polygon class="st2" points="221.4,149.6 221.4,149.9 222.1,149.8 			"/>
			<polygon class="st2" points="222.1,149.8 221.4,149.9 221.3,150.4 222,150.6 222.3,149.8 			"/>
			<path class="st2" d="M232.1,153.5v20.2c0.2-0.1,0.5-0.1,0.8-0.1c0.3,0,0.5,0,0.8,0.1v-20.2c-0.2,0.1-0.5,0.1-0.8,0.1
				C232.6,153.6,232.4,153.5,232.1,153.5"/>
			<path class="st2" d="M228.1,112l0.1-0.4l-0.1-55.8l9.9,17.8c0.3-0.4,0.8-0.7,1.3-0.8l-9.8-17.7c-0.4,0.3-0.8,0.6-1.3,0.7
				L228.1,112z"/>
			<path class="st2" d="M285.2,120.9l-26.5,19.7c0.4,0.4,0.6,0.8,0.8,1.3l26.6-19.9C285.7,121.8,285.4,121.4,285.2,120.9"/>
			<path class="st2" d="M245,108.4l17.9-17.8c-0.4-0.3-0.8-0.6-1.1-1.1l-17.9,17.8C244.4,107.6,244.7,108,245,108.4"/>
			<path class="st2" d="M251.7,70c-0.4-0.4-0.6-0.8-0.8-1.3l-8.3,5c0.3,0.4,0.5,0.9,0.6,1.4L251.7,70z"/>
			<path class="st2" d="M259.2,152.1l-22.5-1.9l-0.8,0.2c0,0.1,0,0.1,0,0.2c0,0.4-0.1,0.7-0.2,1l23.3,2c0-0.2-0.1-0.3-0.1-0.5
				C259,152.7,259.1,152.4,259.2,152.1"/>
			<path class="st2" d="M230,175.8h-1.6l-0.1-49.1l-0.2-0.9l-0.1,51.6h1.9c-0.1-0.2-0.1-0.5-0.1-0.8
				C229.9,176.3,229.9,176.1,230,175.8"/>
			<path class="st2" d="M242.4,106.9c0.5,0,1,0.2,1.5,0.4l9.9-36.4c-0.5,0-1-0.2-1.5-0.4L242.4,106.9z"/>
			<path class="st2" d="M259.8,151c0.4-0.4,0.8-0.6,1.3-0.8l-3-4.8c-0.4,0.3-1,0.4-1.5,0.4L259.8,151z"/>
			<path class="st2" d="M282.2,117l3,1.9c0.2-0.5,0.4-0.9,0.8-1.3l-3-1.9C282.8,116.2,282.5,116.6,282.2,117"/>
			<polygon class="st2" points="226.7,50 226.7,50 226.7,50 			"/>
			<path class="st2" d="M286.6,95.5l-6.2,16.3c0.5,0.1,1,0.2,1.4,0.5l6.2-16.5c0,0-0.1,0-0.1,0C287.5,95.8,287,95.7,286.6,95.5"/>
			<path class="st2" d="M274.2,97.1l11.2-2.7c-0.3-0.4-0.4-0.9-0.4-1.5l-11.1,2.7C274.1,96,274.3,96.5,274.2,97.1
				C274.3,97,274.2,97.1,274.2,97.1"/>
			<path class="st2" d="M265.6,90.8l3.3,4.3c0.3-0.4,0.7-0.7,1.2-0.9l-3.3-4.3C266.5,90.3,266.1,90.6,265.6,90.8"/>
			<path class="st2" d="M227.4,113.8c0.1,0,0.1,0,0.1,0l0.5-1.7l0.1-56.2c-0.2,0.1-0.5,0.1-0.8,0.1c-0.3,0-0.5,0-0.8-0.1l0.1,56.2
				l0.5,1.7C227.3,113.8,227.4,113.8,227.4,113.8"/>
			<polygon class="st2" points="227.4,121.5 226.8,125.8 226.8,177.4 228.1,177.4 228.1,125.8 			"/>
			<path class="st2" d="M227.3,113.8l-0.5-1.7l0,1.8C226.9,113.8,227.1,113.8,227.3,113.8"/>
			<path class="st2" d="M226.8,119.7l0,6.1l0.7-4.2l-0.3-1.8C227,119.7,226.9,119.7,226.8,119.7"/>
			<path class="st2" d="M243.9,115.4l-2.1,0.1l0.6-2.6c0,0,0,0-0.1,0c-0.5,0-1-0.1-1.4-0.4l-0.7,3l-7.6,0.3l7.8-3.6
				c-0.4-0.3-0.7-0.8-0.9-1.2l-9.4,4.4c0.2,0.4,0.3,0.9,0.3,1.4c0,0.2,0,0.5-0.1,0.7l9.5-0.4l-6.9,29.6l0.1,0.9
				c0.4,0,0.8,0.1,1.1,0.3l7.2-30.9l3.1-0.1l7.8,18l-17.6,13.3c0.3,0.2,0.5,0.5,0.7,0.7l1.5-0.5l16-12.2l1.8,4.2
				c0.4-0.3,0.9-0.5,1.4-0.6l-1.9-4.5l24.1-18.2c-0.4-0.3-0.7-0.7-0.9-1.2l-23.8,18l-7.4-17.1l31.1-1.2c-0.1-0.3-0.1-0.6-0.1-0.9
				c0-0.2,0-0.4,0.1-0.6l-31.6,1.2l-1.3-3.1c-0.4,0.3-0.9,0.5-1.4,0.6L243.9,115.4z"/>
			<path class="st2" d="M245,108.4c0.2,0.4,0.4,0.9,0.4,1.5c0,0,0,0,0,0l23.5-11c-0.3-0.4-0.6-0.8-0.6-1.4L245,108.4z"/>
			<path class="st2" d="M228.2,50c-0.2-0.1-0.5-0.1-0.8-0.1c-0.3,0-0.5,0-0.8,0.1l0.8,1.4L228.2,50z"/>
			<path class="st2" d="M226.7,50c-1.3,0.3-2.3,1.5-2.3,2.9c0,0.9,0.4,1.6,0.9,2.2l1.3-2.4L226.7,50z"/>
			<path class="st2" d="M229.5,55.1c0.6-0.6,0.9-1.3,0.9-2.2c0-1.4-1-2.6-2.3-2.9l0,2.7L229.5,55.1z"/>
			<path class="st2" d="M226.7,52.7l-1.3,2.4c0.4,0.3,0.8,0.6,1.3,0.7L226.7,52.7z"/>
			<polygon class="st2" points="228.2,52.7 228.2,50 228.2,50 227.4,51.4 			"/>
			<path class="st2" d="M228.2,55.8c0.5-0.1,1-0.4,1.3-0.7l-1.3-2.4L228.2,55.8z"/>
			<polygon class="st2" points="227.4,51.4 226.7,50 226.7,50 226.7,52.7 			"/>
			<path class="st2" d="M228.2,55.8l0-3.1l-0.8-1.4l-0.8,1.4l0,3.1c0.2,0.1,0.5,0.1,0.8,0.1S228,55.9,228.2,55.8"/>
			<path class="st2" d="M253.8,70.9C253.8,70.9,253.8,70.9,253.8,70.9c1.7,0,3.1-1.3,3.1-3s-1.4-3-3-3c-1.7,0-3,1.4-3,3
				c0,0.3,0.1,0.6,0.1,0.9l4.1-2.5L253.8,70.9z"/>
			<path class="st2" d="M252.6,69.5l-0.9,0.5c0.2,0.2,0.4,0.3,0.6,0.4L252.6,69.5z"/>
			<path class="st2" d="M251.7,70l0.9-0.5l-0.3,1c0.4,0.2,0.9,0.4,1.5,0.4l1.3-4.6l-4.1,2.5C251.1,69.2,251.3,69.7,251.7,70"/>
			<path class="st2" d="M241,112.6l0.1-0.3l-0.1,0.1l0.1-0.5l-0.6,0.3C240.6,112.4,240.8,112.5,241,112.6"/>
			<path class="st2" d="M242.6,112.3l-0.1,0.6c0.1,0,0.3,0,0.4,0L242.6,112.3z"/>
			<path class="st2" d="M243.9,107.3C243.9,107.3,243.9,107.3,243.9,107.3L243.9,107.3L243.9,107.3z"/>
			<path class="st2" d="M239.4,109.9c0,0.4,0.1,0.7,0.2,1.1l2-0.9l0.1-0.3l0.5-2.2l0.1,0.1l0.2-0.7c0,0,0,0,0,0
				C240.7,106.9,239.4,108.2,239.4,109.9"/>
			<path class="st2" d="M244.2,112.3c0.7-0.6,1.2-1.4,1.2-2.4l-1.8,0.9L244.2,112.3z"/>
			<path class="st2" d="M245,108.4L245,108.4L245,108.4C245,108.4,245,108.4,245,108.4"/>
			<polygon class="st2" points="241.6,109.7 241.6,110.1 241.6,110 			"/>
			<polygon class="st2" points="241,112.3 241.1,111.9 241,112 240.9,112.4 			"/>
			<path class="st2" d="M242.2,107.6l0.8,1.8l1.9-0.9l0.1-0.1c-0.3-0.4-0.6-0.8-1.1-1.1l-0.1,0.1l0-0.1c-0.4-0.2-0.9-0.4-1.5-0.4
				L242.2,107.6z"/>
			<path class="st2" d="M240.5,112.2l0.6-0.3l0.5-1.9l-2,0.9C239.7,111.5,240.1,111.9,240.5,112.2"/>
			<polygon class="st2" points="241.6,109.7 242.2,107.6 242.2,107.5 			"/>
			<path class="st2" d="M241,112.6c0.4,0.2,0.9,0.4,1.4,0.4c0,0,0,0,0.1,0l0.1-0.6l0.2,0.6c0.5-0.1,1-0.3,1.4-0.6l-0.7-1.5l1.8-0.9
				c0,0,0,0,0,0c0-0.5-0.2-1-0.4-1.5l-0.1,0.1l-3.8,3.8L241,112.6z"/>
			<polygon class="st2" points="241.6,110 241.6,110.1 241,112 241.1,111.9 241,112.3 244.9,108.5 243,109.4 242.2,107.6 
				241.6,109.7 			"/>
			<path class="st2" d="M265.6,90.8l-1.2-1.6l-1.5,1.4c0.5,0.3,1,0.4,1.5,0.4C264.8,91.1,265.2,91,265.6,90.8"/>
			<path class="st2" d="M266.8,89.9c0.4-0.5,0.7-1.2,0.7-1.9c0-1.7-1.4-3-3-3s-3,1.4-3,3c0,0.6,0.2,1.1,0.4,1.5l2.7-2.7L266.8,89.9z
				"/>
			<path class="st2" d="M262.9,90.6l1.5-1.4l1.2,1.6c0.5-0.2,0.9-0.5,1.2-0.9l-2.3-3l-2.7,2.7C262.1,90,262.5,90.4,262.9,90.6"/>
			<path class="st2" d="M271.2,100c1.7,0,3-1.3,3-3l-2.8,0.7l-2.6,1.2C269.5,99.6,270.3,100,271.2,100"/>
			<path class="st2" d="M273.9,95.6c-0.5-0.9-1.5-1.6-2.6-1.6c-0.4,0-0.8,0.1-1.2,0.2l1.5,1.9L273.9,95.6z"/>
			<path class="st2" d="M268.3,97.6l1.8-0.8l-1.2-1.6c-0.4,0.5-0.7,1.2-0.7,1.9C268.2,97.2,268.2,97.4,268.3,97.6"/>
			<path class="st2" d="M268.9,95.2l1.2,1.6l0.8-0.4l0.6,1.4l-0.1,0l2.8-0.7c0,0,0,0,0,0c0-0.5-0.1-1-0.4-1.4l-2.3,0.6l-1.5-1.9
				C269.6,94.4,269.2,94.8,268.9,95.2"/>
			<path class="st2" d="M268.9,98.9l2.6-1.2l-0.6,0.1l-0.9-1.1l-1.8,0.8C268.4,98.1,268.6,98.6,268.9,98.9"/>
			<polygon class="st2" points="271.5,97.7 271.6,97.7 270.9,96.3 270.1,96.7 270.9,97.9 			"/>
			<path class="st2" d="M289.6,91.8l-1.5,4.1c1.6,0,2.9-1.4,2.9-3c0-1.7-1.4-3-3-3c-1.7,0-3,1.4-3,3c0,0,0,0,0,0.1L289.6,91.8z"/>
			<path class="st2" d="M286.6,95.5l0.6-1.6l-1.8,0.4C285.7,94.8,286.1,95.2,286.6,95.5"/>
			<path class="st2" d="M285,92.9c0,0.5,0.2,1,0.4,1.5l1.8-0.4l-0.6,1.6c0.4,0.2,0.9,0.4,1.4,0.4c0,0,0.1,0,0.1,0l1.5-4.1L285,92.9z
				"/>
			<path class="st2" d="M277.8,115.6l-0.5,0c0,0.1,0.1,0.2,0.1,0.3L277.8,115.6z"/>
			<path class="st2" d="M277.2,114.1l2.4-0.1l0.9-2.3c-0.1,0-0.2,0-0.3,0C278.7,111.7,277.5,112.8,277.2,114.1"/>
			<path class="st2" d="M280.1,117.8c0.8,0,1.5-0.3,2.1-0.8l-2-1.3l-1.9,1.4C278.8,117.5,279.4,117.8,280.1,117.8"/>
			<path class="st2" d="M282.5,113.9l-1.1,0.8l1.5,1c0.1-0.3,0.2-0.6,0.2-0.9c0-1-0.5-1.9-1.3-2.5l-0.6,1.7L282.5,113.9z"/>
			<path class="st2" d="M280.2,115.7l2,1.3c0.4-0.3,0.6-0.8,0.8-1.3l-1.5-1L280.2,115.7z"/>
			<path class="st2" d="M279.6,114l1.6-0.1l0.6-1.7c-0.4-0.3-0.9-0.5-1.4-0.5L279.6,114z"/>
			<path class="st2" d="M277.1,114.8c0,0.3,0.1,0.6,0.1,0.9l0.5,0l-0.4,0.3c0.2,0.5,0.5,0.9,0.9,1.2l1.9-1.4l-1-0.6l0.4-1l-2.4,0.1
				C277.1,114.3,277.1,114.5,277.1,114.8"/>
			<polygon class="st2" points="281.4,114.7 282.5,113.9 281.2,114 281,114.5 			"/>
			<polygon class="st2" points="280.2,115.7 281.4,114.7 281,114.5 281.2,114 279.6,114 279.2,115.1 			"/>
			<path class="st2" d="M260.6,152.2l-0.7-1.2c-0.3,0.3-0.5,0.7-0.7,1.1L260.6,152.2z"/>
			<path class="st2" d="M259,153.6c0.2,1.4,1.5,2.5,3,2.5c1.7,0,3-1.4,3-3c0-1.7-1.4-3-3-3c-0.3,0-0.6,0.1-0.9,0.1l2.3,3.8
				L259,153.6z"/>
			<path class="st2" d="M259.8,151l0.7,1.2l-1.4-0.1c-0.1,0.3-0.2,0.6-0.2,1c0,0.2,0,0.3,0.1,0.5l4.4,0.4l-2.3-3.8
				C260.6,150.4,260.2,150.6,259.8,151"/>
			<path class="st2" d="M230,175.8h2.2v-2.2C231.1,174,230.2,174.8,230,175.8"/>
			<path class="st2" d="M230,177.4c0.3,1.3,1.5,2.3,2.9,2.3c1.7,0,3-1.4,3-3c0-1.4-1-2.6-2.3-2.9v3.7H230z"/>
			<path class="st2" d="M232.1,173.7v2.2H230c-0.1,0.2-0.1,0.5-0.1,0.8c0,0.3,0,0.5,0.1,0.8h3.7v-3.7c-0.2-0.1-0.5-0.1-0.8-0.1
				C232.6,173.6,232.4,173.6,232.1,173.7"/>
			<path class="st2" d="M285.2,120.9l1.5-1.1l-1.5-1c-0.1,0.3-0.2,0.6-0.2,0.9C285,120.2,285.1,120.6,285.2,120.9"/>
			<path class="st2" d="M286.1,122.1c0.5,0.4,1.2,0.7,1.9,0.7c1.7,0,3-1.4,3-3c0-1.7-1.4-3-3-3c-0.8,0-1.5,0.3-2.1,0.8l3.4,2.2
				L286.1,122.1z"/>
			<path class="st2" d="M285.2,118.9l1.5,1l-1.5,1.1c0.2,0.5,0.5,0.9,0.9,1.2l3.2-2.4l-3.4-2.2C285.6,117.9,285.3,118.4,285.2,118.9
				"/>
			<path class="st2" d="M229,114.2l11.1-35.5c-0.5,0-1-0.2-1.4-0.4l-10.4,33.4l0,2.2C228.5,114,228.8,114.1,229,114.2"/>
			<path class="st2" d="M228.3,113.9l0-2.2l-0.1,0.4l0,1.8C228.2,113.8,228.2,113.9,228.3,113.9"/>
			<path class="st2" d="M228.1,113.8l0-1.8l-0.5,1.7C227.8,113.8,228,113.8,228.1,113.8"/>
			<path class="st2" d="M240.3,78.7c1.7,0,3-1.4,3-3c0-0.2,0-0.3-0.1-0.5l-2.5,1.5l-0.6,2C240.2,78.7,240.2,78.7,240.3,78.7"/>
			<path class="st2" d="M242.6,73.8c-0.6-0.7-1.4-1.1-2.3-1.1c-0.3,0-0.6,0.1-0.9,0.2l1.2,2.2L242.6,73.8z"/>
			<path class="st2" d="M238.7,78.2l0.7-2.2l-1.3-2.4c-0.5,0.5-0.8,1.2-0.8,2C237.3,76.8,237.8,77.7,238.7,78.2"/>
			<path class="st2" d="M238.1,73.7l1.3,2.4l0.2-0.6l1.4,0.5l-0.2,0.8l2.5-1.5c-0.1-0.5-0.3-1-0.6-1.4l-2.1,1.2l-1.2-2.2
				C238.8,73,238.4,73.3,238.1,73.7"/>
			<path class="st2" d="M240.1,78.7l0.6-2l-0.8,0.5l-0.6-1.1l-0.7,2.2C239.1,78.5,239.6,78.7,240.1,78.7"/>
			<polygon class="st2" points="240.8,76.7 241,75.9 239.6,75.5 239.4,76 240,77.1 			"/>
			<path class="st2" d="M232.8,147.5l0.2-0.9l-4.4-27.1c-0.1,0.1-0.3,0.1-0.4,0.1l0,7l3.4,21.1C232,147.6,232.4,147.6,232.8,147.5"
				/>
			<path class="st2" d="M228.1,119.7l0,6.1l0.2,0.9l0-7C228.2,119.7,228.2,119.7,228.1,119.7"/>
			<path class="st2" d="M227.7,119.8l-0.3,1.8l0.7,4.2l0-6.1C228,119.7,227.9,119.7,227.7,119.8"/>
			<path class="st2" d="M227.4,119.8c-0.1,0-0.2,0-0.3,0l0.3,1.8l0.3-1.8C227.6,119.8,227.5,119.8,227.4,119.8"/>
			<path class="st2" d="M233.2,147.6l-0.1-0.9l-0.2,0.9c0,0,0,0,0.1,0C233,147.5,233.1,147.6,233.2,147.6"/>
			<path class="st2" d="M230.1,115.4c-0.3-0.5-0.6-0.9-1.1-1.2l-0.6,2L230.1,115.4z"/>
			<path class="st2" d="M225.2,117.7l0.3-0.2l-1.1,0c0.2,0.9,0.9,1.7,1.7,2.1l0.3-1.9L225.2,117.7z"/>
			<path class="st2" d="M225.9,114.2c-0.5,0.3-0.8,0.7-1.1,1.2l1.7,0.8L225.9,114.2z"/>
			<path class="st2" d="M230.4,117.5l-1.1,0l0.3,0.2l-1.3-0.1l0.3,1.9C229.5,119.2,230.2,118.4,230.4,117.5"/>
			<polygon class="st2" points="228.3,117.6 229.7,117.7 229.3,117.5 228.3,117.6 			"/>
			<path class="st2" d="M224.5,117.5l1.1,0l1-0.5v-0.3l-0.2-0.5l-1.7-0.8c-0.2,0.4-0.3,0.9-0.3,1.4
				C224.4,117,224.5,117.2,224.5,117.5"/>
			<polygon class="st2" points="226.7,116.8 226.6,116.7 226.6,117 226.6,117 			"/>
			<path class="st2" d="M226.6,116.3l0-2.4c-0.3,0.1-0.5,0.2-0.8,0.3l0.6,2L226.6,116.3z"/>
			<path class="st2" d="M226.8,116.3l0-2.5c0,0-0.1,0-0.1,0l0,2.4L226.8,116.3z"/>
			<polygon class="st2" points="226.5,116.2 226.6,116.7 226.6,116.3 			"/>
			<polygon class="st2" points="226.7,116.7 226.8,116.7 226.8,116.6 226.7,116.5 226.8,116.4 226.8,116.3 226.6,116.3 226.6,116.7 
				226.7,116.8 			"/>
			<path class="st2" d="M226.5,117.6l-0.3,1.9c0.1,0.1,0.3,0.1,0.4,0.1L226.5,117.6L226.5,117.6z"/>
			<path class="st2" d="M226.6,117.6l0,2c0,0,0.1,0,0.1,0l0-2.1L226.6,117.6z"/>
			<polygon class="st2" points="226.7,116.9 226.7,116.8 226.6,117 226.7,117 			"/>
			<polygon class="st2" points="226.7,116.9 226.8,116.9 226.8,116.7 226.7,116.7 226.7,116.8 226.7,116.9 			"/>
			<path class="st2" d="M227.6,113.8c-0.1,0-0.1,0-0.1,0c-0.1,0-0.1,0-0.1,0l0.1,0.5L227.6,113.8z"/>
			<path class="st2" d="M226.8,116.3l0.7-2.1l-0.1-0.5c-0.2,0-0.4,0-0.5,0.1L226.8,116.3L226.8,116.3z"/>
			<polygon class="st2" points="227.3,116.7 226.8,116.6 226.8,116.7 227.2,116.7 			"/>
			<polygon class="st2" points="226.8,116.3 226.8,116.3 226.8,116.4 			"/>
			<path class="st2" d="M226.8,117.6l0,2.1c0.1,0,0.3,0,0.4,0.1L226.8,117.6L226.8,117.6z"/>
			<polygon class="st2" points="227,116.8 227.2,116.7 226.8,116.7 226.8,116.9 			"/>
			<polygon class="st2" points="225.6,117.5 225.2,117.7 226.5,117.6 226.6,117.6 			"/>
			<path class="st2" d="M228.3,116.7v0.4l1,0.5l1.1,0c0.1-0.2,0.1-0.5,0.1-0.7c0-0.5-0.1-1-0.3-1.4l-1.7,0.8L228.3,116.7z"/>
			<polygon class="st2" points="226.6,117.1 226.6,117 225.6,117.5 226.6,117.6 			"/>
			<polygon class="st2" points="228.3,117.1 228.3,117.6 229.3,117.5 228.3,117 			"/>
			<polygon class="st2" points="226.6,117 226.6,117 226.6,117.1 			"/>
			<polygon class="st2" points="226.6,117.6 226.5,117.6 226.6,117.6 226.6,117.6 			"/>
			<polygon class="st2" points="226.6,117.6 226.6,117.6 226.8,117.6 226.8,117.6 			"/>
			<polygon class="st2" points="226.6,117.6 226.6,117.6 226.6,117.1 			"/>
			<polygon class="st2" points="226.6,117 226.6,117.1 226.6,117.6 226.8,117.6 226.8,117.2 226.7,117 			"/>
			<polygon class="st2" points="228.3,117 228.3,117 228.3,116.7 228.2,116.8 			"/>
			<polygon class="st2" points="228.3,117.1 228.3,117 228.2,117 			"/>
			<polygon class="st2" points="227.4,116.8 227.3,116.7 227.2,116.7 			"/>
			<polygon class="st2" points="226.8,117.6 226.8,117.6 226.8,117.6 226.8,117.6 			"/>
			<polygon class="st2" points="226.8,117.6 226.8,117.2 226.8,117.6 			"/>
			<polygon class="st2" points="227.2,116.7 227,116.8 227.4,116.8 227.4,116.8 			"/>
			<path class="st2" d="M228.4,116.2l0.6-2c-0.2-0.1-0.5-0.3-0.8-0.3l0,2.4L228.4,116.2z"/>
			<polygon class="st2" points="226.7,116.5 226.8,116.6 226.8,116.4 			"/>
			<path class="st2" d="M228.3,116.3l0-2.4c0,0-0.1,0-0.1,0l0,2.5L228.3,116.3z"/>
			<path class="st2" d="M228.1,116.3L228.1,116.3l0-2.5c-0.2,0-0.4-0.1-0.5-0.1l-0.1,0.5L228.1,116.3z"/>
			<polygon class="st2" points="228.1,116.3 227.4,114.2 226.8,116.3 227.4,116.6 			"/>
			<polygon class="st2" points="226.8,116.6 227.3,116.7 227.4,116.6 226.8,116.3 226.8,116.4 			"/>
			<polygon class="st2" points="228.4,116.2 228.3,116.3 228.3,116.7 			"/>
			<polygon class="st2" points="228.2,116.5 228.1,116.6 228.1,116.7 228.2,116.7 228.2,116.8 228.3,116.7 228.3,116.3 228.1,116.3 
				228.1,116.4 			"/>
			<polygon class="st2" points="228.1,116.3 228.1,116.3 228.1,116.4 			"/>
			<polygon class="st2" points="228.1,116.7 228.1,116.6 227.6,116.7 227.6,116.7 			"/>
			<polygon class="st2" points="227.6,116.7 227.6,116.7 227.4,116.8 			"/>
			<polygon class="st2" points="228.1,116.4 228.1,116.6 228.2,116.5 			"/>
			<polygon class="st2" points="227.6,116.7 228.1,116.6 228.1,116.4 228.1,116.3 227.4,116.6 			"/>
			<polygon class="st2" points="227.4,116.8 227.4,116.8 227.6,116.7 227.4,116.6 227.3,116.7 			"/>
			<path class="st2" d="M227.4,116.8L227.4,116.8z"/>
			<path class="st2" d="M228.3,117.6l0,2c0.1,0,0.3-0.1,0.4-0.1L228.3,117.6L228.3,117.6z"/>
			<polygon class="st2" points="228.3,117.6 228.3,117.6 228.3,117.6 228.3,117.6 			"/>
			<polygon class="st2" points="226.7,117 226.7,117 226.7,116.9 			"/>
			<polygon class="st2" points="226.7,116.9 226.7,116.9 226.7,117 226.8,117 226.8,116.9 			"/>
			<path class="st2" d="M228.1,117.6l0,2.1c0,0,0.1,0,0.1,0l0-2L228.1,117.6z"/>
			<path class="st2" d="M228.1,117.6l-0.3,2.2c0.1,0,0.3,0,0.4-0.1L228.1,117.6L228.1,117.6z"/>
			<polygon class="st2" points="228.1,117.6 228.1,117.6 228.3,117.6 228.3,117.6 			"/>
			<polygon class="st2" points="228.1,117.6 228.1,117.6 228.1,117.6 228.1,117.6 			"/>
			<path class="st2" d="M227.4,117.6l-0.6,0l0.3,2.2c0.1,0,0.2,0,0.3,0c0.1,0,0.2,0,0.3,0l0.3-2.2L227.4,117.6z"/>
			<polygon class="st2" points="227.4,117.6 228.1,117.6 228.1,117.6 			"/>
			<polygon class="st2" points="226.8,117 227,116.8 226.8,116.9 			"/>
			<polygon class="st2" points="228.3,117.6 228.3,117.1 228.3,117.6 			"/>
			<polygon class="st2" points="226.7,117 226.7,117 226.8,117.2 226.8,117 226.7,117 			"/>
			<polygon class="st2" points="226.7,117 226.7,117 226.8,117 226.8,117 			"/>
			<polygon class="st2" points="228.2,117 228.3,117 228.2,116.8 228.2,116.9 			"/>
			<polygon class="st2" points="228.2,117 228.1,117.2 228.1,117.6 228.3,117.6 228.3,117.1 228.3,117 			"/>
			<polygon class="st2" points="228.1,117.6 228.1,117.6 228.1,117.2 			"/>
			<polygon class="st2" points="228.2,117 228.2,117 228.2,116.9 			"/>
			<polygon class="st2" points="226.8,117.6 227.4,117.6 226.8,117.6 			"/>
			<polygon class="st2" points="228.2,117 228.2,117 228.1,117 228.1,117.2 228.2,117 			"/>
			<polygon class="st2" points="228.1,117.2 228.1,117 227.4,116.8 226.8,117 226.8,117.2 226.8,117.6 227.4,117.6 228.1,117.6 			
				"/>
			<polygon class="st2" points="227,116.8 226.8,117 226.8,117 227.4,116.8 			"/>
			<polygon class="st2" points="228.2,116.9 228.2,116.9 228.2,116.8 228.2,116.7 228.1,116.7 228.1,116.9 			"/>
			<polygon class="st2" points="227.9,116.8 228.1,116.9 228.1,116.7 227.6,116.7 			"/>
			<polygon class="st2" points="227.4,116.8 227.4,116.8 227.9,116.8 227.6,116.7 			"/>
			<polygon class="st2" points="227.4,116.8 227.4,116.8 227.4,116.8 			"/>
			<polygon class="st2" points="228.2,116.9 228.1,116.9 228.1,117 228.2,117 228.2,116.9 			"/>
			<polygon class="st2" points="227.9,116.8 228.1,117 228.1,116.9 			"/>
			<polygon class="st2" points="228.2,117 228.1,117 228.1,117 228.2,117 			"/>
			<polygon class="st2" points="227.9,116.8 227.4,116.8 228.1,117 228.1,117 			"/>
			<path class="st2" d="M227.4,116.8L227.4,116.8z"/>
			<path class="st2" d="M253.6,143l-16.7,5.4l-1.3,0.9c0.1,0.2,0.1,0.4,0.2,0.7l0.8,0.1l17.4-5.7C253.8,144,253.6,143.5,253.6,143"
				/>
			<path class="st2" d="M235.9,150.4l0.8-0.2l-0.8-0.1C235.9,150.2,235.9,150.3,235.9,150.4"/>
			<path class="st2" d="M235.7,149.4l1.3-0.9l-1.5,0.5C235.5,149.1,235.6,149.2,235.7,149.4"/>
			<path class="st2" d="M256.6,145.8C256.6,145.8,256.6,145.8,256.6,145.8l-1.1-1.9l-1.5,0.5C254.6,145.3,255.5,145.8,256.6,145.8"
				/>
			<path class="st2" d="M256.1,139.8l0.9,2.1l1.7-1.3c-0.5-0.5-1.3-0.9-2.1-0.9C256.4,139.8,256.3,139.8,256.1,139.8"/>
			<path class="st2" d="M253.6,142.8c0,0.1,0,0.1,0,0.2l2-0.6l-0.8-1.9C254,141,253.6,141.9,253.6,142.8"/>
			<path class="st2" d="M258.2,145.4c0.9-0.5,1.5-1.5,1.5-2.6c0-0.3-0.1-0.6-0.1-0.8l-2.3,1.8L258.2,145.4z"/>
			<path class="st2" d="M258.7,140.7l-1.7,1.3l0.3,0.6l-0.7,0.3l0.2,0.7l-1.3,0.4l1.1,1.9c0.6,0,1.1-0.2,1.5-0.4l-1-1.7l2.3-1.8
				C259.3,141.5,259.1,141,258.7,140.7"/>
			<path class="st2" d="M254.7,140.4l0.8,1.9l0.8-0.3l0.1,0.3l0.6-0.4l-0.9-2.1C255.6,139.9,255.1,140.1,254.7,140.4"/>
			<polygon class="st2" points="256.6,142.8 257.3,142.5 257,141.9 256.4,142.4 			"/>
			<path class="st2" d="M255.8,142.9l-0.2-0.5l-2,0.6c0,0.5,0.2,1,0.5,1.4l1.4-0.5l-0.4-0.6L255.8,142.9z"/>
			<polygon class="st2" points="255.8,142.9 255.1,143.4 255.5,144 256.8,143.5 256.6,142.8 255.9,143.1 			"/>
			<polygon class="st2" points="256.4,142.4 256.4,142.1 255.6,142.4 255.8,142.9 			"/>
			<polygon class="st2" points="255.8,142.9 255.9,143.1 256.6,142.8 256.4,142.4 			"/>
			<path class="st2" d="M233.6,153.5c1-0.3,1.7-1,2.1-1.9l-2.1-0.2V153.5z"/>
			<path class="st2" d="M232.1,150.5l-0.4-2.7c-1.1,0.5-1.8,1.5-1.8,2.8c0,1.4,1,2.6,2.3,2.9v-1.4l-0.5,0.3L232.1,150.5z"/>
			<path class="st2" d="M234.7,148.2c-0.1-0.1-0.3-0.2-0.5-0.3l-0.2,0.8L234.7,148.2z"/>
			<path class="st2" d="M235.9,150.4l-2.6,0.9l-1.1,0.8v1.4c0.2,0.1,0.5,0.1,0.8,0.1c0.3,0,0.5,0,0.8-0.1v-2.1l2.1,0.2
				c0.1-0.3,0.2-0.6,0.2-1C235.9,150.5,235.9,150.4,235.9,150.4"/>
			<path class="st2" d="M235.4,148.9c-0.2-0.3-0.4-0.5-0.7-0.7l-0.7,0.5l0.2-0.8c-0.3-0.2-0.7-0.3-1.1-0.3l0.3,2L235.4,148.9z"/>
			<polygon class="st2" points="232.1,150.5 231.7,152.4 232.1,152.1 232.1,150.6 			"/>
			<polygon class="st2" points="232.9,150.6 232.1,150.7 232.1,150.6 232.1,152.1 233.2,151.2 233.1,151.3 			"/>
			<path class="st2" d="M232.1,149.7l0.2,0l0.5-2.2c-0.4,0-0.8,0.1-1.1,0.2l0.4,2.7l0-0.1V149.7z"/>
			<polygon class="st2" points="232.1,150.5 232.3,149.8 232.1,149.7 			"/>
			<polygon class="st2" points="232.1,150.5 232.1,150.6 232.1,150.5 			"/>
			<path class="st2" d="M232.8,149.8l0.7-0.2l-0.3-2c-0.1,0-0.2,0-0.3,0c0,0,0,0-0.1,0l-0.5,2.2L232.8,149.8z"/>
			<polygon class="st2" points="232.8,149.8 232.3,149.8 232.1,150.5 232.1,150.6 232.1,150.7 232.9,150.6 232.6,149.8 			"/>
			<path class="st2" d="M235.8,150.1c0-0.2-0.1-0.5-0.2-0.7l-0.8,0.6L235.8,150.1z"/>
			<path class="st2" d="M234.9,150l-1.7,1.3l2.6-0.9c0-0.1,0-0.2,0-0.3L234.9,150z"/>
			<path class="st2" d="M233.5,149.6l0,0.3l1.4,0.1l0.8-0.6c-0.1-0.2-0.2-0.3-0.2-0.5L233.5,149.6z"/>
			<polygon class="st2" points="233.5,149.9 233.6,150.4 232.9,150.6 233.1,151.3 233.2,151.2 234.9,150 			"/>
			<polygon class="st2" points="232.8,149.8 233.5,149.9 233.5,149.6 			"/>
			<polygon class="st2" points="232.6,149.8 232.9,150.6 233.6,150.4 233.5,149.9 232.8,149.8 			"/>
			<polygon class="st2" points="290.1,177.1 294.3,178.2 292.9,174.1 			"/>
			
				<rect x="143.8" y="148.5" transform="matrix(0.9146 -0.4043 0.4043 0.9146 -48.9552 72.3334)" class="st2" width="5.9" height="7.1"/>
			<path class="st2" d="M158.3,173.7l-0.7,0.6c-0.3,0.3-0.3,0.7,0.2,1.2l3.3,3.7l1.6-1.5l-3.3-3.7
				C159,173.5,158.6,173.4,158.3,173.7"/>
			
				<rect x="277.6" y="42.5" transform="matrix(0.6025 -0.7981 0.7981 0.6025 74.7552 242.188)" class="st2" width="5.9" height="7.1"/>
			<path class="st2" d="M297.6,165.8c-0.1,0.9,0.4,1.7,1.4,2.4c1.6,1.1,3,0.7,4.1-1l2.1-3.2l-4.9-3.2l-1.5,2.3
				C298.1,164.2,297.7,165.1,297.6,165.8"/>
			<path class="st2" d="M161.7,170.9c-0.2-0.1-0.4,0-0.7,0.3l-0.5,0.5c-0.3,0.2-0.4,0.4-0.3,0.6c0,0.2,0.2,0.4,0.4,0.7l3.3,3.7
				l1.8-1.6l-3.3-3.7C162.1,171.1,161.9,171,161.7,170.9"/>
			<polygon class="st2" points="144.7,78.7 147.3,82.1 149,78.4 			"/>
			<polygon class="st2" points="176.9,45.4 173.1,43.5 173.7,47.8 			"/>
			<polygon class="st2" points="310.8,153 308.2,149.6 306.5,153.3 			"/>
			
				<rect x="302.7" y="72.1" transform="matrix(0.8862 -0.4634 0.4634 0.8862 -0.2667 150.2341)" class="st2" width="5.9" height="7.1"/>
			<path class="st2" d="M227.4,15.6c-54.7,0-99.1,44.5-99.1,99.1c0,54.7,44.5,99.1,99.1,99.1s99.1-44.5,99.1-99.1
				C326.6,60.1,282.1,15.6,227.4,15.6 M277.4,40.7c0.5-0.7,1-1.1,1.4-1.1c0.4,0,1,0.2,1.7,0.7l5.4,4.1c0.7,0.5,1.1,1,1.2,1.4
				c0.1,0.4-0.1,1-0.7,1.7l-2.9,3.9c-0.5,0.7-1,1.1-1.4,1.1s-1-0.2-1.7-0.7l-5.4-4.1c-0.7-0.5-1.1-1-1.2-1.4c-0.1-0.4,0.1-1,0.7-1.7
				L277.4,40.7z M304.1,114.8c0,42.4-34.3,76.7-76.7,76.7c-42.4,0-76.7-34.3-76.7-76.7c0-42.3,34.3-76.7,76.7-76.7
				C269.8,38.1,304.1,72.4,304.1,114.8 M274.1,36.2l-4.6,8.1l-1.9-1.1l4.6-8.1L274.1,36.2z M259.5,29.2l9.8,4.3l-0.7,1.5l-3.9-1.7
				l-3,7l-2-0.9l3-7l-3.9-1.7L259.5,29.2z M251.9,27l2,0.6l2.6,10.4l-2.3-0.7l-0.5-2.3l-5.6-1.6l-1.6,1.7l-2.1-0.6L251.9,27z
				 M241,24.7l2.1,0.3l-1.5,9.1l-2.1-0.3L241,24.7z M225.7,25.8c0-0.9,0.2-1.4,0.6-1.7c0.3-0.3,0.9-0.4,1.8-0.4l5.5,0.2
				c1.1,0,1.8,0.3,2,0.8c0.2,0.3,0.2,1.1,0.2,2.3l-2.2,0.3l0.1-1.8l-5.8-0.2l-0.2,5.9l5.8,0.2l0.1-2l2.1,0.5l0,1.1
				c0,0.9-0.2,1.4-0.6,1.7c-0.3,0.3-0.9,0.4-1.8,0.4l-5.5-0.2c-0.9,0-1.5-0.2-1.8-0.5c-0.3-0.3-0.5-0.9-0.4-1.8L225.7,25.8z
				 M209.5,25.7c0.3-0.3,0.9-0.6,1.7-0.7l6.8-0.9c0.9-0.1,1.5-0.1,1.8,0.2c0.4,0.3,0.6,0.8,0.7,1.7l0.7,4.8c0.1,0.9,0,1.5-0.2,1.8
				c-0.3,0.3-0.9,0.6-1.7,0.7l-6.8,0.9c-0.9,0.1-1.5,0.1-1.8-0.2c-0.4-0.3-0.6-0.8-0.7-1.7l-0.7-4.8
				C209.1,26.7,209.2,26.1,209.5,25.7 M194.7,30c0.2-0.4,0.7-0.7,1.6-1l5-1.6c0.8-0.3,1.5-0.3,1.9-0.1c0.4,0.2,0.7,0.7,1,1.5l-1.7,1
				l-0.3-1l-5.8,1.9l0.6,1.9l5.5-1.8c0.8-0.3,1.5-0.3,1.9-0.1c0.4,0.2,0.8,0.7,1,1.5l0.4,1.2c0.3,0.8,0.3,1.4,0.1,1.8
				c-0.2,0.4-0.8,0.7-1.6,1l-5.4,1.8c-0.9,0.3-1.5,0.3-1.9,0.1c-0.4-0.2-0.7-0.8-1-1.7l1.7-1l0.3,1l6.2-2l-0.7-2l-5.5,1.8
				c-0.8,0.3-1.4,0.3-1.9,0.1c-0.4-0.2-0.7-0.7-1-1.5l-0.3-1C194.6,31,194.5,30.4,194.7,30 M181.1,36.5c0.2-0.4,0.6-0.8,1.4-1.2
				l4.7-2.4c0.8-0.4,1.4-0.6,1.8-0.4c0.4,0.1,0.8,0.6,1.2,1.3l-1.5,1.3l-0.5-0.9l-5.4,2.8l0.9,1.8l5.1-2.7c0.8-0.4,1.4-0.5,1.8-0.4
				c0.4,0.1,0.9,0.5,1.2,1.3l0.6,1.1c0.4,0.8,0.5,1.4,0.4,1.8c-0.2,0.4-0.6,0.8-1.4,1.2l-5.1,2.6c-0.8,0.4-1.5,0.6-1.9,0.4
				c-0.4-0.2-0.9-0.7-1.3-1.5l1.5-1.2l0.5,1l5.8-3l-1-1.9l-5.1,2.7c-0.8,0.4-1.4,0.5-1.8,0.4c-0.4-0.1-0.8-0.6-1.2-1.3l-0.5-0.9
				C181,37.5,180.9,36.9,181.1,36.5 M172.9,41.4l9.8,4.3l-1.9,1.4l-2.1-1l-4.7,3.5l0.3,2.3l-1.7,1.3l-1.3-10.6L172.9,41.4z
				 M152.8,61.2l8.3-1.6c0.6-0.1,1.1-0.2,1.4-0.2c-0.7-0.5-1.1-0.8-1.3-0.9l-3.8-3.1l1.2-1.5l7.2,5.8l-0.9,1.1l-8.7,1.7
				c-0.4,0.1-0.7,0.1-1.1,0.1c0.5,0.3,0.9,0.6,1.2,0.8l3.9,3.2l-1.2,1.5l-7.2-5.8L152.8,61.2z M148.9,67l7.9,4.8l-1.1,1.8l-7.9-4.8
				L148.9,67z M143.5,76.9l10.6-1l-1,2.2l-2.3,0.2l-2.4,5.3l1.4,1.8l-0.9,2l-6.2-8.6L143.5,76.9z M136.9,96.1l3.5,0.9l1.7-6.5
				l-3.5-0.9l0.6-2.1l9,2.4l-0.6,2.1l-3.9-1l-1.7,6.5l3.9,1l-0.5,2.1l-9-2.4L136.9,96.1z M134.8,111.5l0.5-5.5
				c0.1-1.1,0.4-1.8,0.9-2c0.3-0.1,1.1-0.2,2.3-0.1l0.2,2.2l-1.8-0.1l-0.5,5.8l5.8,0.5l0.5-5.8l-2-0.2l0.6-2.1l1.1,0.1
				c0.9,0.1,1.4,0.3,1.7,0.6c0.3,0.4,0.4,1,0.3,1.8l-0.5,5.5c-0.1,0.9-0.3,1.5-0.6,1.8c-0.3,0.3-0.9,0.4-1.8,0.3l-4.9-0.4
				c-0.9-0.1-1.4-0.3-1.7-0.6C134.8,113,134.7,112.3,134.8,111.5 M135.1,126l3.8-0.3l-4.2-4.8l-0.2-3.1l4.8,5.8l4.4-7.2l0.3,3.5
				l-3.7,5.8l4.1-0.3l0.2,2.2l-9.2,0.7L135.1,126z M138.9,142.9c-0.4-0.2-0.7-0.8-0.9-1.6l-1.3-5.4c-0.3-1.1-0.2-1.8,0.3-2.2
				c0.3-0.2,1-0.5,2.2-0.8l0.8,2l-1.7,0.4l1.4,5.6l5.7-1.4l-1.4-5.6l-1.9,0.5l-0.1-2.2l1.1-0.3c0.8-0.2,1.4-0.2,1.8,0.1
				c0.4,0.2,0.7,0.8,0.9,1.6l1.3,5.4c0.2,0.8,0.2,1.5,0,1.9c-0.2,0.4-0.7,0.7-1.6,0.9l-4.7,1.2C139.8,143.1,139.2,143.1,138.9,142.9
				 M145.1,158.5c-0.4-0.2-0.8-0.7-1.1-1.5l-2.8-6.2c-0.4-0.8-0.5-1.4-0.3-1.8c0.1-0.4,0.6-0.8,1.4-1.2l4.5-2
				c0.8-0.3,1.4-0.4,1.8-0.3c0.4,0.2,0.8,0.7,1.1,1.5l2.8,6.2c0.4,0.8,0.5,1.4,0.3,1.8c-0.1,0.4-0.6,0.8-1.4,1.2l-4.5,2
				C146.1,158.6,145.5,158.7,145.1,158.5 M150.4,168.2l6.3-4.1l-3.8-5.8l1.5-0.9l4.9,7.6l-7.8,5L150.4,168.2z M161.4,181.7l-5.3-5.9
				c-0.9-1-0.9-2,0-2.7l0.8-0.8c0.7-0.6,1.4-0.6,2.2,0.2c-0.6-0.9-0.6-1.7,0.2-2.4l0.9-0.8c0.9-0.8,2-0.5,3.2,0.8l4.9,5.5
				L161.4,181.7z M227.4,203c-22.2,0-42.5-8.2-58-21.8l1.9-1.9c15,13.1,34.7,21,56.1,21c20.9,0,40.1-7.5,55-20
				c0.6,0.6,1.3,1.2,1.9,1.9C268.9,195.2,249.1,203,227.4,203 M294.8,180.2l-10.4-2.4l1.6-1.8l2.2,0.6l4-4.3l-0.8-2.2l1.5-1.6
				l3.2,10.1L294.8,180.2z M304.5,168.1c-0.9,1.3-1.9,2.2-3,2.6c-1.2,0.4-2.5,0.2-3.8-0.7c-1.5-1-2.2-2.3-2.2-3.9
				c0-0.9,0.5-2.1,1.5-3.6l3-4.5l7.7,5.1L304.5,168.1z M312,154.7l-10.6,1.1l1-2.2l2.3-0.2l2.4-5.4l-1.4-1.8l0.9-2l6.4,8.5
				L312,154.7z M318.4,135l-6.9,5c-0.5,0.4-0.9,0.6-1.2,0.8c0.9,0.1,1.4,0.2,1.6,0.3l4.7,1.2l-0.5,1.9l-9-2.2l0.4-1.4l7.2-5.2
				c0.3-0.2,0.6-0.4,0.9-0.6c-0.6-0.1-1.1-0.2-1.4-0.3l-4.9-1.2l0.5-1.9l9,2.2L318.4,135z M319.9,124.2l-9.6,4.6l0.2-2.4l2.1-1
				l0.4-5.9l-1.9-1.2l0.2-2.1l8.9,5.9L319.9,124.2z M319,104c0.3,0.3,0.5,0.9,0.6,1.8l0.5,5.5c0.1,1.1-0.1,1.8-0.6,2.1
				c-0.3,0.2-1,0.3-2.3,0.4l-0.5-2.1l1.8-0.1l-0.5-5.8l-5.8,0.5l0.5,5.8l2-0.2l-0.3,2.2l-1.1,0.1c-0.9,0.1-1.5,0-1.8-0.3
				s-0.5-0.9-0.6-1.8l-0.5-5.5c-0.1-0.9,0-1.5,0.3-1.8c0.3-0.4,0.8-0.6,1.7-0.6l4.9-0.4C318.1,103.6,318.7,103.7,319,104
				 M317.3,92.7l-1.5,0.5l-2.3-6.8l-2.3,0.8l1.2,3.7l-1.6,0.5l-1.2-3.7l-3.3,1.1l-0.7-2l8.8-2.9L317.3,92.7z M299.5,73
				c0.1-0.4,0.6-0.8,1.3-1.2l4.3-2.3c0.8-0.4,1.4-0.5,1.8-0.4c0.4,0.2,0.8,0.6,1.2,1.4l3.2,6c0.4,0.8,0.6,1.4,0.4,1.8
				c-0.1,0.4-0.6,0.8-1.3,1.2l-4.3,2.3c-0.8,0.4-1.4,0.5-1.8,0.4c-0.4-0.2-0.8-0.6-1.2-1.4l-3.2-6C299.5,74,299.4,73.4,299.5,73
				 M299.4,57.7l-6.8,6.3l-1-1.1l-0.4-8.9c0-0.4,0-0.7,0-1.1c-0.4,0.4-0.7,0.8-1,1l-3.7,3.4l-1.3-1.4l6.8-6.3l1,1.1l0.4,8.5
				c0,0.6,0,1.1,0,1.5c0.6-0.6,1-1,1.1-1.1l3.6-3.3L299.4,57.7z"/>
			<polygon class="st2" points="252.4,29 249.4,32 253.3,33.1 			"/>
			<polygon class="st2" points="314.6,120.7 314.3,124.7 318.2,123 			"/>
			
				<rect x="211.7" y="26.2" transform="matrix(0.9905 -0.1376 0.1376 0.9905 -1.9604 29.8905)" class="st2" width="7.1" height="5.9"/>
			<path class="st2" d="M227.4,9.9c-57.8,0-104.8,47-104.8,104.8c0,57.8,47,104.8,104.8,104.8c57.8,0,104.8-47,104.8-104.8
				C332.3,56.9,285.3,9.9,227.4,9.9 M227.4,217c-56.4,0-102.2-45.9-102.2-102.2c0-56.4,45.9-102.2,102.2-102.2
				s102.2,45.9,102.2,102.2C329.7,171.1,283.8,217,227.4,217"/>
			<path class="st3" d="M160.2,169.2l-0.9,0.8c-0.8,0.7-0.8,1.5-0.2,2.4c-0.8-0.7-1.5-0.8-2.2-0.2L156,173c-0.9,0.8-0.9,1.7,0,2.7
				l5.3,5.9l6.9-6.2l-4.9-5.5C162.2,168.7,161.1,168.4,160.2,169.2 M161.1,179.1l-3.3-3.7c-0.4-0.5-0.5-0.9-0.2-1.2l0.7-0.6
				c0.3-0.3,0.7-0.2,1.2,0.3l3.3,3.7L161.1,179.1z M163.9,176.6l-3.3-3.7c-0.2-0.3-0.4-0.5-0.4-0.7c0-0.2,0.1-0.4,0.3-0.6l0.5-0.5
				c0.3-0.2,0.5-0.3,0.7-0.3c0.2,0.1,0.4,0.2,0.6,0.5l3.3,3.7L163.9,176.6z"/>
			<polygon class="st3" points="154.4,157.3 153,158.3 156.7,164.1 150.4,168.2 151.6,170 159.4,165 			"/>
			<path class="st3" d="M152.7,155.1c0.1-0.4,0-1-0.3-1.8l-2.8-6.2c-0.4-0.8-0.7-1.3-1.1-1.5c-0.4-0.2-1-0.1-1.8,0.3l-4.5,2
				c-0.8,0.3-1.3,0.7-1.4,1.2c-0.1,0.4,0,1,0.3,1.8l2.8,6.2c0.4,0.8,0.7,1.3,1.1,1.5c0.4,0.2,1,0.1,1.8-0.3l4.5-2
				C152.1,155.9,152.6,155.6,152.7,155.1 M145.5,156.5l-2.9-6.5l5.4-2.4l2.9,6.5L145.5,156.5z"/>
			<path class="st3" d="M147,140.9c0.2-0.4,0.2-1,0-1.9l-1.3-5.4c-0.2-0.8-0.5-1.4-0.9-1.6c-0.4-0.2-1-0.3-1.8-0.1l-1.1,0.3l0.1,2.2
				l1.9-0.5l1.4,5.6l-5.7,1.4l-1.4-5.6l1.7-0.4l-0.8-2c-1.2,0.3-1.9,0.6-2.2,0.8c-0.4,0.4-0.5,1.1-0.3,2.2l1.3,5.4
				c0.2,0.8,0.5,1.4,0.9,1.6c0.4,0.2,1,0.3,1.8,0.1l4.7-1.2C146.3,141.6,146.8,141.3,147,140.9"/>
			<polygon class="st3" points="144.4,125.3 140.3,125.6 144,119.8 143.7,116.3 139.3,123.5 134.5,117.7 134.8,120.9 139,125.7 
				135.1,126 135.3,128.1 144.5,127.5 			"/>
			<path class="st3" d="M136.8,113.9l4.9,0.4c0.9,0.1,1.5,0,1.8-0.3c0.3-0.3,0.5-0.9,0.6-1.8l0.5-5.5c0.1-0.9,0-1.5-0.3-1.8
				c-0.3-0.4-0.8-0.6-1.7-0.6l-1.1-0.1l-0.6,2.1l2,0.2l-0.5,5.8l-5.8-0.5l0.5-5.8l1.8,0.1l-0.2-2.2c-1.2-0.1-2-0.1-2.3,0.1
				c-0.5,0.2-0.8,0.9-0.9,2l-0.5,5.5c-0.1,0.9,0,1.5,0.3,1.8C135.4,113.7,135.9,113.9,136.8,113.9"/>
			<polygon class="st3" points="145.8,98.4 142,97.4 143.7,90.9 147.6,91.9 148.1,89.8 139.2,87.4 138.6,89.5 142.1,90.5 140.4,97 
				136.9,96.1 136.3,98.1 145.3,100.5 			"/>
			<path class="st3" d="M149.8,85.5l-1.4-1.8l2.4-5.3l2.3-0.2l1-2.2l-10.6,1l-0.9,1.9l6.2,8.6L149.8,85.5z M144.7,78.7l4.3-0.2
				l-1.7,3.7L144.7,78.7z"/>
			
				<rect x="151.2" y="65.8" transform="matrix(0.5234 -0.8521 0.8521 0.5234 12.6155 163.3272)" class="st3" width="2.2" height="9.3"/>
			<path class="st3" d="M160.3,66.7l-3.9-3.2c-0.3-0.2-0.7-0.5-1.2-0.8c0.3,0,0.7-0.1,1.1-0.1l8.7-1.7l0.9-1.1l-7.2-5.8l-1.2,1.5
				l3.8,3.1c0.2,0.1,0.6,0.4,1.3,0.9c-0.4,0-0.8,0.1-1.4,0.2l-8.3,1.6l-0.9,1.1l7.2,5.8L160.3,66.7z"/>
			<path class="st3" d="M174.3,51.9l-0.3-2.3l4.7-3.5l2.1,1l1.9-1.4l-9.8-4.3l-1.7,1.2l1.3,10.6L174.3,51.9z M176.9,45.4l-3.3,2.4
				l-0.6-4.3L176.9,45.4z"/>
			<path class="st3" d="M181.9,39.2c0.4,0.8,0.8,1.2,1.2,1.3c0.4,0.1,1,0,1.8-0.4l5.1-2.7l1,1.9l-5.8,3l-0.5-1l-1.5,1.2
				c0.4,0.8,0.9,1.4,1.3,1.5c0.4,0.2,1,0,1.9-0.4l5.1-2.6c0.8-0.4,1.2-0.8,1.4-1.2c0.2-0.4,0-1-0.4-1.8l-0.6-1.1
				c-0.4-0.8-0.8-1.2-1.2-1.3c-0.4-0.1-1,0-1.8,0.4l-5.1,2.7l-0.9-1.8l5.4-2.8l0.5,0.9l1.5-1.3c-0.4-0.8-0.8-1.2-1.2-1.3
				c-0.4-0.1-1,0-1.8,0.4l-4.7,2.4c-0.8,0.4-1.2,0.8-1.4,1.2c-0.2,0.4,0,1,0.4,1.8L181.9,39.2z"/>
			<path class="st3" d="M195.1,32.8c0.3,0.8,0.6,1.3,1,1.5c0.4,0.2,1,0.1,1.9-0.1l5.5-1.8l0.7,2l-6.2,2l-0.3-1l-1.7,1
				c0.3,0.9,0.6,1.5,1,1.7c0.4,0.2,1,0.2,1.9-0.1l5.4-1.8c0.8-0.3,1.4-0.6,1.6-1c0.2-0.4,0.2-1-0.1-1.8l-0.4-1.2
				c-0.3-0.8-0.6-1.3-1-1.5c-0.4-0.2-1-0.1-1.9,0.1l-5.5,1.8l-0.6-1.9l5.8-1.9l0.3,1l1.7-1c-0.3-0.8-0.6-1.3-1-1.5
				c-0.4-0.2-1-0.1-1.9,0.1l-5,1.6c-0.8,0.3-1.4,0.6-1.6,1c-0.2,0.4-0.2,1,0.1,1.8L195.1,32.8z"/>
			<path class="st3" d="M209.9,32.4c0.1,0.9,0.4,1.4,0.7,1.7c0.4,0.3,1,0.3,1.8,0.2l6.8-0.9c0.9-0.1,1.4-0.4,1.7-0.7
				c0.3-0.3,0.4-0.9,0.2-1.8l-0.7-4.8c-0.1-0.9-0.4-1.4-0.7-1.7c-0.4-0.3-1-0.3-1.8-0.2l-6.8,0.9c-0.9,0.1-1.4,0.4-1.7,0.7
				c-0.3,0.3-0.4,0.9-0.2,1.8L209.9,32.4z M218.3,25.7l0.8,5.8l-7,1l-0.8-5.8L218.3,25.7z"/>
			<path class="st3" d="M227.7,32.9l5.5,0.2c0.9,0,1.5-0.1,1.8-0.4c0.3-0.3,0.5-0.9,0.6-1.7l0-1.1l-2.1-0.5l-0.1,2l-5.8-0.2l0.2-5.9
				l5.8,0.2l-0.1,1.8l2.2-0.3c0-1.2,0-2-0.2-2.3c-0.2-0.5-0.9-0.8-2-0.8l-5.5-0.2c-0.9,0-1.5,0.1-1.8,0.4c-0.3,0.3-0.5,0.9-0.6,1.7
				l-0.2,4.9c0,0.9,0.1,1.4,0.4,1.8C226.2,32.7,226.8,32.9,227.7,32.9"/>
			
				<rect x="236.8" y="28.3" transform="matrix(0.1568 -0.9876 0.9876 0.1568 174.4697 263.2057)" class="st3" width="9.3" height="2.2"/>
			<path class="st3" d="M248,33.4l5.6,1.6l0.5,2.3l2.3,0.7l-2.6-10.4l-2-0.6l-7.6,7.5l2.1,0.6L248,33.4z M252.4,29l0.9,4.2l-3.9-1.1
				L252.4,29z"/>
			<polygon class="st3" points="259.7,39.4 261.7,40.3 264.7,33.3 268.6,35 269.3,33.5 259.5,29.2 258.9,30.7 262.8,32.4 			"/>
			<rect x="266.2" y="38.6" transform="matrix(0.493 -0.87 0.87 0.493 102.7573 255.7802)" class="st3" width="9.3" height="2.2"/>
			<path class="st3" d="M273.8,46.3c0.1,0.4,0.5,0.9,1.2,1.4l5.4,4.1c0.7,0.5,1.3,0.8,1.7,0.7c0.4,0,0.9-0.4,1.4-1.1l2.9-3.9
				c0.5-0.7,0.7-1.2,0.7-1.7c-0.1-0.4-0.5-0.9-1.2-1.4l-5.4-4.1c-0.7-0.5-1.3-0.8-1.7-0.7c-0.4,0-0.9,0.4-1.4,1.1l-2.9,3.9
				C274,45.3,273.7,45.8,273.8,46.3 M279.5,41.6l5.7,4.3l-3.5,4.7l-5.7-4.3L279.5,41.6z"/>
			<path class="st3" d="M293.4,60.7c0-0.4,0-0.8,0-1.5l-0.4-8.5l-1-1.1l-6.8,6.3l1.3,1.4l3.7-3.4c0.3-0.2,0.6-0.6,1-1
				c0,0.3-0.1,0.7,0,1.1l0.4,8.9l1,1.1l6.8-6.3l-1.3-1.4l-3.6,3.3C294.4,59.7,294,60.1,293.4,60.7"/>
			<path class="st3" d="M303.1,80.8c0.4,0.8,0.8,1.2,1.2,1.4c0.4,0.2,1,0,1.8-0.4l4.3-2.3c0.8-0.4,1.2-0.8,1.3-1.2
				c0.1-0.4,0-1-0.4-1.8l-3.2-6c-0.4-0.8-0.8-1.2-1.2-1.4c-0.4-0.2-1,0-1.8,0.4l-4.3,2.3c-0.8,0.4-1.2,0.8-1.3,1.2
				c-0.1,0.4,0,1,0.4,1.8L303.1,80.8z M306.6,71.2l3.3,6.3l-5.2,2.7l-3.3-6.3L306.6,71.2z"/>
			<polygon class="st3" points="306.3,88.8 309.6,87.7 310.8,91.4 312.4,90.8 311.2,87.1 313.5,86.4 315.8,93.2 317.3,92.7 
				314.4,83.8 305.6,86.7 			"/>
			<path class="st3" d="M312.4,104.1c-0.9,0.1-1.4,0.3-1.7,0.6c-0.3,0.4-0.4,1-0.3,1.8l0.5,5.5c0.1,0.9,0.3,1.5,0.6,1.8
				c0.3,0.3,0.9,0.4,1.8,0.3l1.1-0.1l0.3-2.2l-2,0.2l-0.5-5.8l5.8-0.5l0.5,5.8l-1.8,0.1l0.5,2.1c1.2-0.1,2-0.3,2.3-0.4
				c0.5-0.3,0.7-1,0.6-2.1l-0.5-5.5c-0.1-0.9-0.3-1.5-0.6-1.8c-0.3-0.3-0.9-0.4-1.8-0.3L312.4,104.1z"/>
			<path class="st3" d="M311,118.4l1.9,1.2l-0.4,5.9l-2.1,1l-0.2,2.4l9.6-4.6l0.1-2.1l-8.9-5.9L311,118.4z M314.6,120.7l3.6,2.3
				l-3.9,1.7L314.6,120.7z"/>
			<path class="st3" d="M309.3,133.2l4.9,1.2c0.3,0.1,0.8,0.2,1.4,0.3c-0.3,0.2-0.6,0.3-0.9,0.6l-7.2,5.2l-0.4,1.4l9,2.2l0.5-1.9
				l-4.7-1.2c-0.2,0-0.7-0.1-1.6-0.3c0.3-0.2,0.7-0.4,1.2-0.8l6.9-5l0.4-1.4l-9-2.2L309.3,133.2z"/>
			<path class="st3" d="M305.6,146.3l1.4,1.8l-2.4,5.4l-2.3,0.2l-1,2.2l10.6-1.1l0.8-1.9l-6.4-8.5L305.6,146.3z M310.8,153l-4.3,0.3
				l1.6-3.7L310.8,153z"/>
			<path class="st3" d="M297.1,162.6c-1,1.5-1.5,2.7-1.5,3.6c0,1.6,0.7,2.9,2.2,3.9c1.3,0.9,2.5,1.1,3.8,0.7c1.1-0.4,2.1-1.2,3-2.6
				l3.3-5l-7.7-5.1L297.1,162.6z M305.2,164l-2.1,3.2c-1.1,1.7-2.5,2-4.1,1c-1-0.7-1.5-1.5-1.4-2.4c0.1-0.7,0.4-1.6,1.2-2.7l1.5-2.3
				L305.2,164z"/>
			<path class="st3" d="M291.5,170.1l0.8,2.2l-4,4.3l-2.2-0.6l-1.6,1.8l10.4,2.4l1.4-1.5l-3.2-10.1L291.5,170.1z M290.1,177.1l2.8-3
				l1.4,4.1L290.1,177.1z"/>
			<path class="st3" d="M227.4,200.4c-21.5,0-41.1-7.9-56.1-21l-1.9,1.9c15.5,13.6,35.8,21.8,58,21.8c21.6,0,41.5-7.8,56.8-20.8
				c-0.6-0.6-1.3-1.2-1.9-1.9C267.5,192.8,248.3,200.4,227.4,200.4"/>
		</g>
	</g>
</g>
</svg>
