<?xml version="1.0" encoding="utf-8"?>
<!-- Generator: Adobe Illustrator 21.0.0, SVG Export Plug-In . SVG Version: 6.00 Build 0)  -->
<svg version="1.1" id="Layer_1" xmlns="http://www.w3.org/2000/svg" xmlns:xlink="http://www.w3.org/1999/xlink" x="0px" y="0px"
	 viewBox="0 0 95 40.5" style="enable-background:new 0 0 95 40.5;" xml:space="preserve">
<style type="text/css">
	.st0{fill:#010101;}
</style>
<title>Asset 2black</title>
<g id="Layer_2">
	<g id="Layer_1-2">
		<path class="st0" d="M65.3,36.9c-0.9-0.6-1.7-1.3-2.4-2.1c-3.8-3.9-6-9.1-5.9-14.6v-0.1c0-0.9,0.1-1.8,0.2-2.7l-6.3-15h-9.3
			l-8.8,20.8c-0.2-0.3-0.4-0.6-0.7-0.9c-1.4-1.4-3.2-2.5-5.1-3c1.5-0.6,2.8-1.6,3.8-2.9c1.1-1.4,1.6-3.1,1.5-4.9v-0.1
			c0-1.1-0.2-2.2-0.6-3.2c-0.4-0.9-1-1.7-1.7-2.4c-1.1-1.1-2.4-1.8-3.9-2.3c-1.8-0.6-3.7-0.8-5.6-0.8H2.7v34.8h18
			c2.1,0,4.3-0.2,6.3-0.8l-0.4,0.8h10.2l2.5-6.2h13.5l2.5,6.2h10.3L65.3,36.9z M12.1,10.5h6.3c1.1-0.1,2.3,0.2,3.3,0.8
			c0.7,0.5,1.1,1.3,1.1,2.2v0.1c0.1,0.9-0.4,1.8-1.2,2.3c-1,0.6-2.2,0.8-3.4,0.8h-6.1V10.5z M24.2,26.6c0,0.9-0.4,1.8-1.2,2.4
			c-1,0.6-2.2,0.9-3.5,0.9h-7.5v-6.4h7.4c1.3-0.1,2.5,0.2,3.6,0.9C23.8,24.8,24.2,25.7,24.2,26.6z M42.1,23.8l3.9-9.9l3.9,9.9H42.1z
			"/>
		<path class="st0" d="M85.3,25.2c-0.5,0.6-1,1.2-1.6,1.7c-0.5,0.5-1.1,1-1.7,1.3c-0.6,0.4-1.3,0.7-2,0.9c-0.8,0.2-1.6,0.3-2.5,0.3
			c-1.2,0-2.3-0.2-3.4-0.7c-1-0.5-1.9-1.1-2.6-2c-0.8-0.9-1.3-1.9-1.7-3c-0.4-1.2-0.6-2.4-0.6-3.7v-0.1c0-1.2,0.2-2.4,0.6-3.6
			c0.4-1.1,1-2.1,1.7-2.9c0.7-0.8,1.6-1.5,2.6-2c1.1-0.5,2.2-0.7,3.4-0.7c1.5,0,3,0.3,4.3,1.1c1.3,0.8,2.4,1.8,3.3,3l7.3-5.6
			c-0.8-1.1-1.6-2.1-2.6-2.9c-1-0.9-2.1-1.7-3.3-2.3c-1.3-0.7-2.6-1.2-4-1.5C80.8,2.2,79.2,2,77.5,2c-2.5,0-5,0.4-7.4,1.4
			C68,4.3,66,5.6,64.4,7.3c-3.4,3.4-5.3,8.1-5.2,12.9v0.1c0,4.8,1.8,9.5,5.3,12.9c1.6,1.6,3.6,2.9,5.7,3.8c2.2,0.9,4.6,1.4,7,1.3
			c1.8,0,3.5-0.2,5.2-0.6c1.5-0.4,2.9-0.9,4.2-1.6c1.2-0.7,2.3-1.5,3.3-2.5c1-1,1.9-2,2.7-3.1L85.3,25.2z"/>
	</g>
</g>
</svg>
