<?xml version="1.0" encoding="utf-8"?>
<!-- Generator: Adobe Illustrator 21.0.0, SVG Export Plug-In . SVG Version: 6.00 Build 0)  -->
<svg version="1.1" xmlns="http://www.w3.org/2000/svg" xmlns:xlink="http://www.w3.org/1999/xlink" x="0px" y="0px"
	 viewBox="0 0 44 18" style="enable-background:new 0 0 44 18;" xml:space="preserve">
<style type="text/css">
	.st0{fill:#010101;}
</style>
<g id="Layer_1">
	<g id="Layer_2_1_">
		<g id="Layer_1-2">
			<path class="st0" d="M30.1,16.3c-0.4-0.3-0.8-0.6-1.1-0.9c-1.8-1.8-2.7-4.2-2.7-6.6v0c0-0.4,0-0.8,0.1-1.2l-2.9-6.8h-4.3l-4,9.5
				c-0.1-0.1-0.2-0.3-0.3-0.4c-0.6-0.6-1.4-1.1-2.3-1.4C13.3,8,13.9,7.6,14.4,7c0.5-0.6,0.7-1.4,0.7-2.2v0c0-0.5-0.1-1-0.3-1.5
				c-0.2-0.4-0.4-0.8-0.8-1.1c-0.5-0.5-1.1-0.8-1.8-1c-0.8-0.3-1.7-0.4-2.6-0.3H1.6v15.9h8.2c1,0,1.9-0.1,2.9-0.4l-0.2,0.4h4.6
				l1.1-2.8h6.1l1.2,2.8h4.7L30.1,16.3z M5.9,4.2h2.9c0.5,0,1,0.1,1.5,0.3c0.3,0.2,0.5,0.6,0.5,1v0c0,0.4-0.2,0.8-0.5,1
				C9.7,7,9.2,7.1,8.6,7.1H5.9V4.2z M11.4,11.6c0,0.4-0.2,0.8-0.5,1.1c-0.5,0.3-1,0.4-1.6,0.4H5.9v-2.9h3.4c0.6,0,1.1,0.1,1.6,0.4
				C11.2,10.8,11.4,11.2,11.4,11.6z M19.6,10.3l1.8-4.5l1.8,4.5H19.6z"/>
			<path class="st0" d="M39.3,11c-0.2,0.3-0.5,0.5-0.7,0.8c-0.2,0.2-0.5,0.4-0.8,0.6c-0.3,0.2-0.6,0.3-0.9,0.4
				c-0.4,0.1-0.7,0.1-1.1,0.1c-0.5,0-1.1-0.1-1.5-0.3c-0.5-0.2-0.9-0.5-1.2-0.9c-0.3-0.4-0.6-0.9-0.8-1.4c-0.2-0.5-0.3-1.1-0.3-1.7
				v0c0-0.6,0.1-1.1,0.3-1.6C32.4,6.5,32.6,6,33,5.6c0.3-0.4,0.7-0.7,1.2-0.9c0.5-0.2,1-0.3,1.5-0.3c0.7,0,1.4,0.2,2,0.5
				c0.6,0.4,1.1,0.8,1.5,1.4l3.3-2.6c-0.4-0.5-0.8-0.9-1.2-1.3c-0.5-0.4-1-0.8-1.5-1C39.2,1,38.6,0.8,38,0.6
				c-0.7-0.2-1.5-0.2-2.2-0.2c-1.2,0-2.3,0.2-3.4,0.6c-1,0.4-1.9,1-2.6,1.7c-1.5,1.6-2.4,3.7-2.4,5.9v0c0,2.2,0.8,4.3,2.4,5.9
				c0.7,0.7,1.6,1.3,2.6,1.7c1,0.4,2.1,0.6,3.2,0.6c0.8,0,1.6-0.1,2.4-0.3c0.7-0.2,1.3-0.4,1.9-0.7c0.6-0.3,1.1-0.7,1.5-1.1
				c0.5-0.4,0.9-0.9,1.3-1.4L39.3,11z"/>
		</g>
	</g>
</g>
<g id="Layer_2">
</g>
</svg>
